<svg xmlns="http://www.w3.org/2000/svg" xmlns:xlink="http://www.w3.org/1999/xlink" viewBox="0 0 278.62 109.89"><defs><style>.cls-1{font-size:36.01px;fill:#0b497a;font-family:HomepageBaukasten-Bold, HomepageBaukasten;font-weight:700;letter-spacing:-0.07em;}.cls-2{letter-spacing:-0.05em;}.cls-3{letter-spacing:-0.05em;}.cls-4{fill:#f1d135;}.cls-5{fill:url(#Gradiente_sem_nome_44);}</style><linearGradient id="Gradiente_sem_nome_44" y1="69.37" x2="110.24" y2="69.37" gradientUnits="userSpaceOnUse"><stop offset="0" stop-color="#004674"/><stop offset="0.17" stop-color="#00436f"/><stop offset="0.38" stop-color="#003c60"/><stop offset="0.52" stop-color="#003553"/><stop offset="0.64" stop-color="#003c60"/><stop offset="0.84" stop-color="#00436f"/><stop offset="1" stop-color="#004674"/></linearGradient></defs><title>csl_1</title><g id="Camada_2" data-name="Camada 2"><g id="Camada_1-2" data-name="Camada 1"><text class="cls-1" transform="translate(127.87 53.55)">c<tspan class="cls-2" x="18.08" y="0">olégio</tspan><tspan class="cls-3"><tspan x="0" y="35.97">são lucas</tspan></tspan></text><path class="cls-4" d="M55.12,42.65C68,29.7,86.36,24.35,98.23,22.15V15S72.69,16.66,55.12,32.89C38.11,15.93,12,15,12,15v7.11C23.88,24.35,42.24,29.7,55.12,42.65Z"/><path class="cls-5" d="M55.12,54C37.68,30.58,0,28.84,0,28.84V84.75s37.68,1.74,55.12,25.14c17.44-23.4,55.12-25.14,55.12-25.14V28.84S72.56,30.58,55.12,54Z"/><ellipse class="cls-4" cx="55.12" cy="16.68" rx="16.72" ry="16.68"/></g></g></svg>