<svg xmlns="http://www.w3.org/2000/svg" viewBox="0 0 770.12 715.5"><defs><style>.cls-1{isolation:isolate;}.cls-2{fill:#f8c34f;}.cls-3{fill:#d6b5d2;opacity:0.65;mix-blend-mode:multiply;}.cls-4{fill:#37354c;}.cls-5{fill:#f2af97;}.cls-6{fill:#d65c5c;}.cls-7{fill:#e08d73;}.cls-8{fill:#6571b7;}.cls-9{fill:#d3af53;}.cls-10{fill:#ead18c;}.cls-11{fill:#fff;}.cls-12{fill:#7983e2;}.cls-13{fill:#524f63;}.cls-14{fill:#823f4a;}.cls-15{fill:#4758a0;}.cls-16{fill:#c45553;}.cls-17{fill:#413339;}.cls-18{fill:#61253f;}.cls-19{fill:#9092ec;}.cls-20{fill:#eff2f7;}.cls-21{fill:#b23f3f;}.cls-22{fill:#d59a4f;}.cls-23{fill:#91616a;}.cls-24{fill:#662f20;}.cls-25{fill:none;stroke:#662f20;stroke-miterlimit:10;stroke-width:0.75px;}.cls-26{fill:#bd8747;}.cls-27{fill:#b37637;}.cls-28{fill:#6b3f25;}.cls-29{fill:#995644;}.cls-30{fill:#5bb59b;}.cls-31{fill:#7c3c2f;}.cls-32{fill:#020202;}.cls-33{fill:#bcbace;}.cls-34{fill:#a85c0f;}.cls-35{fill:#d8775d;}</style></defs><title>students_1</title><g class="cls-1"><g id="Camada_2" data-name="Camada 2"><g id="Camada_1-2" data-name="Camada 1"><path class="cls-2" d="M643.65,260.15c-33.64-10.73-51.6-51-83-65.17-28.74-12.94-62-7.08-90.77,2.43-28.5,9.41-52.86,30.7-82.58,35.64-19.83,3.3-38.41-3.56-38.41-3.56-18.92-4.7-40.66-14.83-40.67-14.83h0s-21.93-7.86-38.54-8.82c-19.33-1.12-19.71,4.56-68.24,24.57-11,4.52-21.67,8.38-32,14.26-23.75,13.55-33.8,33.72-40,61.09C114,374.5,36.69,390.66,6.74,450.63c-7.37,14.76-8.44,29.05-4.46,44.73,8.63,34.09,27.2,66,58.39,81.39,35.48,17.48,76.15,16.84,114.45,17.91,27.1.76,55.09,4.72,77.9,21.45,15.71,11.52,29.36,25.54,42.44,40.18C359.74,711.61,408.3,718.2,440,714.75c69.08-7.52,91.16-66.3,162.49-58.46,34.44,3.78,50.17,19.77,95.51,17.64a198.37,198.37,0,0,0,72-17.64V636.06q0-97.48,0-194.95c0-46.15-2.43-93.75.12-139.55-12.27-7.33-22.47-11.8-32.36-22.45-10-10.81-20.84-21.46-36.27-19.9-14.86,1.5-20.69,6.69-41.31,4.56A92.11,92.11,0,0,1,643.65,260.15Z"/><ellipse class="cls-3" cx="204.65" cy="463.31" rx="100.94" ry="20.19"/><ellipse class="cls-3" cx="372.89" cy="463.31" rx="100.94" ry="20.19"/><ellipse class="cls-3" cx="519.26" cy="463.31" rx="100.94" ry="20.19"/><ellipse class="cls-3" cx="640.39" cy="463.31" rx="100.94" ry="20.19"/><path class="cls-4" d="M315.2,99.59s-15.68,18.76-18.45,35S288,197.64,294,206.17s12.91,8.53,14.76,8.53,87.17,6,86.71-7.68-8.77-103.59-8.77-103.59S349.79,84.24,315.2,99.59Z"/><path class="cls-5" d="M402.71,120.48s9.94,71.71,10.65,82.36-2.13,59.64-2.13,59.64l-9.94-.71-20.7-133Z"/><path class="cls-6" d="M381.46,92.84c-6.11-1.5-25.82-4.33-40.09-4.49v-.06l-.42,0-.42,0v.06c-5.29.4-24.33.13-30.41,10.28C303.41,109.81,300,200.85,300,200.85h84.68S383.93,93.44,381.46,92.84Z"/><path class="cls-7" d="M309,95.38S270,149.06,265.85,162.3s-5.52,17.22,4.29,22c10.8,5.23,17.4-7.51,19.82-16.61,3.88-14.56,13.72-37.52,14.33-39.36C305.16,125.68,309,95.38,309,95.38Z"/><polygon class="cls-5" points="366.71 394.12 367.25 438.44 369.3 443.35 382.17 446.57 381.24 384.61 366.71 394.12"/><polygon class="cls-5" points="328.97 400.59 326.34 438.65 316.25 436.95 313.78 398.32 328.97 400.59"/><path class="cls-8" d="M300,200.85l13.83,206.36,14.8.65,5.58-187.38L351,221s9.53,111.6,9,113.29,6.2,73.82,6.2,73.82l16.86-.62,4.42-74.89-2.81-131.79Z"/><path class="cls-9" d="M380.06,439.68s-2.43-5.61.76-6.07a5.46,5.46,0,0,1,4.85,1.52l7.59,8.8,3.95,6.38-6.07-2.89Z"/><path class="cls-10" d="M367.76,436.8s2.48,6.23,5.16,5.16c1.52-.61,4.25-5.62,6.23-4.86s9.56,6.53,12.44,8-5.92-10-5.92-10,7.44,7.89,10,9.26,24.44,7.13,24.9,14l-.38,4.41s-7.21,6.52-24.06.75-26.42-6.83-29.45-8S365.33,437,367.76,436.8Z"/><path class="cls-11" d="M399.64,461.24c-8.05-1.37-21.4-7.29-26.57-7.9a30.86,30.86,0,0,1-7.92-2.23c.18,2.27.66,4,1.55,4.36,3,1.21,12.6,2.28,29.45,8s24.06-.75,24.06-.75l.38-4.41C418.61,461.84,407.68,462.6,399.64,461.24Z"/><path class="cls-11" d="M384.46,444.17a.87.87,0,0,1-.41-.11.85.85,0,0,1-.33-1.14c.08-.15,2-3.63,4.71-4.14a3.64,3.64,0,0,1,3.09.86.84.84,0,1,1-1.07,1.3,2,2,0,0,0-1.7-.51c-1.58.3-3.1,2.49-3.56,3.3A.83.83,0,0,1,384.46,444.17Z"/><path class="cls-11" d="M387,446.6a.87.87,0,0,1-.41-.11.85.85,0,0,1-.33-1.14c.09-.15,2-3.63,4.71-4.14a3.64,3.64,0,0,1,3.09.86.84.84,0,0,1-1.06,1.3,2,2,0,0,0-1.71-.51c-1.58.3-3.1,2.49-3.55,3.3A.85.85,0,0,1,387,446.6Z"/><path class="cls-11" d="M390.23,448.27a.87.87,0,0,1-.41-.11.84.84,0,0,1-.33-1.14c.08-.15,2-3.63,4.71-4.14a3.65,3.65,0,0,1,3.09.86.84.84,0,0,1,.12,1.18.85.85,0,0,1-1.19.12,2,2,0,0,0-1.7-.51c-1.58.3-3.1,2.49-3.56,3.3A.83.83,0,0,1,390.23,448.27Z"/><path class="cls-11" d="M393.57,449.78a.84.84,0,0,1-.74-1.25c.08-.14,2-3.62,4.71-4.13a3.69,3.69,0,0,1,3.09.86.83.83,0,0,1,.11,1.18.84.84,0,0,1-1.18.12,2,2,0,0,0-1.7-.51c-1.58.3-3.1,2.48-3.56,3.3A.82.82,0,0,1,393.57,449.78Z"/><path class="cls-6" d="M284.77,125.54,304.9,150.7l19.41-60.38s-21.56,0-26.24,7.55C294.21,104.1,286.68,114.42,284.77,125.54Z"/><polygon class="cls-12" points="362.86 398.73 385.24 398.79 384.42 408.53 364.32 408.4 362.86 398.73"/><polygon class="cls-12" points="310.36 398.45 333.05 398.49 332.24 408.23 311.81 408.12 310.36 398.45"/><path class="cls-13" d="M300.18,174.69c4.86-3.37,13.2-39.53,14.85-45.21,3.46-12,4.87-26.61,4.75-39.06-4.24-1.71-9-.38-13.22,1.26-4.44,16.6-12.6,63.79-12,81A8.5,8.5,0,0,0,300.18,174.69Z"/><path class="cls-5" d="M314.33,126.83a10.43,10.43,0,1,1-10.42-10.43A10.41,10.41,0,0,1,314.33,126.83Z"/><path class="cls-5" d="M296.35,132l-29.67,33.44s-12.78,17.21-.3,23.36c9,4.43,16.31-4.9,21-10.61.82-1,16-40.53,16-40.53Z"/><path class="cls-5" d="M362.27,90.19a145.19,145.19,0,0,0-20.9-1.84v-.06l-.42,0-.42,0v.06c-2.79.21-9.4.25-15.92,1.71C324.37,93.5,343,114,343,114S361.46,95.64,362.27,90.19Z"/><path class="cls-5" d="M341.37,68.51h0A8.39,8.39,0,0,0,333,76.9V92.55a8.39,8.39,0,0,0,8.39,8.38h0a8.38,8.38,0,0,0,8.38-8.38V76.9A8.39,8.39,0,0,0,341.37,68.51Z"/><path class="cls-7" d="M341.37,63.47h0A8.39,8.39,0,0,0,333,71.85V82.61a29,29,0,0,0,16.77,0V71.85A8.38,8.38,0,0,0,341.37,63.47Z"/><circle class="cls-5" cx="341.37" cy="50.02" r="29.18" transform="translate(237.6 379.06) rotate(-80.83)"/><circle class="cls-5" cx="313.29" cy="51.7" r="8.77"/><path class="cls-5" d="M377.39,51.7a8.78,8.78,0,1,1-8.78-8.77A8.77,8.77,0,0,1,377.39,51.7Z"/><path class="cls-4" d="M333.16,52.92A2.17,2.17,0,1,1,331,50.77,2.17,2.17,0,0,1,333.16,52.92Z"/><path class="cls-4" d="M353.5,52.92a2.17,2.17,0,1,1-2.17-2.15A2.17,2.17,0,0,1,353.5,52.92Z"/><path class="cls-4" d="M324.28,47.06l-1.23-1.15a11.64,11.64,0,0,1,10.27-3.5L333,44.06A9.9,9.9,0,0,0,324.28,47.06Z"/><path class="cls-4" d="M357.77,47.06a10,10,0,0,0-8.72-3l-.33-1.65A11.63,11.63,0,0,1,359,45.91Z"/><path class="cls-11" d="M306.94,468.09s-1.26,4.62-.58,7.16a10,10,0,0,0,9.69,7.33c6.39.2,14.71.61,14.21-17.24Z"/><path class="cls-9" d="M316.34,439.61c.57-1-1.24-8.56,4-8.3s5.88,2.78,5.49,6.49S323,456.65,323,456.65l-7.39.68Z"/><path class="cls-10" d="M315.23,434.36s-2.24,13-2.48,13.54-7,20.6-6,23.76c.7,2.27,4.63,5.53,13.05,5.22a10.94,10.94,0,0,0,10.31-12.59c-.85-5.69-1.92-16.44-1.92-16.6s-1-13.53-1-13.53-6.17,9.26-6.66,20.66l-2.28-.12S318.79,433.72,315.23,434.36Z"/><path class="cls-11" d="M325.1,440.92a.86.86,0,0,1-.6-.25c-3.63-3.7-7.45-.55-7.62-.42a.84.84,0,0,1-1.09-1.28,7.09,7.09,0,0,1,9.91.52.84.84,0,0,1-.6,1.43Z"/><path class="cls-11" d="M324.55,445.23a.82.82,0,0,1-.6-.25c-3.63-3.69-7.46-.55-7.62-.42a.83.83,0,0,1-1.18-.09.85.85,0,0,1,.09-1.19,7.09,7.09,0,0,1,9.91.52.85.85,0,0,1,0,1.19A.86.86,0,0,1,324.55,445.23Z"/><path class="cls-11" d="M324,449.54a.85.85,0,0,1-.6-.25c-3.63-3.69-7.45-.55-7.61-.41a.84.84,0,0,1-1.19-.1.83.83,0,0,1,.1-1.18,7.08,7.08,0,0,1,9.9.51.84.84,0,0,1,0,1.19A.82.82,0,0,1,324,449.54Z"/><path class="cls-11" d="M323.44,453.86a.86.86,0,0,1-.6-.25c-3.63-3.7-7.45-.55-7.62-.42a.84.84,0,0,1-1.09-1.28,7.09,7.09,0,0,1,9.91.52.84.84,0,0,1,0,1.19A.86.86,0,0,1,323.44,453.86Z"/><path class="cls-6" d="M406.14,126.25,386,151.41,366.61,91s21.56,0,26.24,7.55C396.71,104.81,404.24,115.13,406.14,126.25Z"/><path class="cls-13" d="M383.24,174.69c-4.86-3.37-13.2-39.53-14.84-45.21-3.47-12-4.88-26.61-4.76-39.06,4.24-1.71,9-.38,13.23,1.26,4.43,16.6,12.59,63.79,12,81A8.48,8.48,0,0,1,383.24,174.69Z"/><path class="cls-4" d="M354.65,29.36c-2.88,2.56-8.94,2.86-12.6,2.67A57.27,57.27,0,0,1,333.8,31a19.12,19.12,0,0,1-7.06-2.62c-3.3-2.23-5.55-6.21-6.4-10.48S320,4.13,321.26,0c8.92,9.26,19.76,7.16,28.43,11.46,1.83.9,3.66,2.4,4.07,4.61,1.12-1.68,3.44-.56,5.1.4,3.61,2.06,7.31,4.42,9.47,8.3a18.35,18.35,0,0,1,2.1,7.3c.47,5.32.05,12-2.8,16.28-1.19-5-1.82-8.87-3.73-12.44S358.32,29.24,354.65,29.36Z"/><path class="cls-4" d="M314.78,46.32c-1.53-2.16-3.11-4.43-3.6-7.12a16.49,16.49,0,0,1,.93-7.88A51.47,51.47,0,0,1,316.06,22a9.3,9.3,0,0,1,3.59-4.14,4.74,4.74,0,0,1,6.51,3c.9,2.66-1.3,5.75-2.44,8C320.77,34.7,316.73,39.92,314.78,46.32Z"/><path class="cls-14" d="M331.72,62a10,10,0,0,0,19.78,0Z"/><path class="cls-11" d="M331.72,62a10.19,10.19,0,0,0,1.09,3.23h13.65a2.33,2.33,0,0,0,2.33-2.33V62Z"/><path class="cls-15" d="M301.33,221l.19-.07a19.54,19.54,0,0,0,12.7-20H300Z"/><path class="cls-15" d="M384.66,200.85H367.12L370.39,211a23.18,23.18,0,0,0,6.83,10.35c2.7,2.37,5.92,5.09,8,6.54Z"/><path class="cls-16" d="M377.23,265.75l.28,36.59.34,1a6,6,0,0,0,10.8,1.18l.56-.92,1.85-38.41Z"/><path class="cls-16" d="M423.66,264.65l-32.6.52-7.39,42.19,34.47-3.5a7.93,7.93,0,0,0,7.26-8.35Z"/><path class="cls-11" d="M378.9,265.46l.46,34.3s-.15,3.69,3.36,3.77,2.93-4.36,2.93-4.36l1.07-33.95Z"/><path class="cls-5" d="M413.73,268.12a10.43,10.43,0,1,1-10.42-10.43A10.41,10.41,0,0,1,413.73,268.12Z"/><path class="cls-17" d="M215.69,103.4a10.94,10.94,0,0,0-6.2-4.06,151,151,0,0,0-33-4.26V95l-.42,0-.42,0v.06c-5.29.4-24.32.13-30.41,10.28-6.71,11.18-10.13,102.22-10.13,102.22h84.68s-1.6-41.05-4.69-71.41c8,14.79,18.75,34,18.75,34.78,0,1.3,10.86,19.11,10.86,19.11s13.15-.94,19.48-5.17C272.34,179.44,226.61,117.87,215.69,103.4Z"/><path class="cls-18" d="M144.05,98.87s-6.79,21.08-8,30.31S121,205.48,121,205.48h5s13.53-73.69,14.4-77S149.13,102,149.13,102Z"/><polygon class="cls-16" points="169.63 131.93 175.45 126.75 216.64 121.3 226.65 179.73 183.56 185.05 169.63 131.93"/><path class="cls-11" d="M171.65,133s3.42-4.18,3.8-4.18,39.8-5.58,39.8-5.58l9.37,55.39-5.07,4-39.41,2.67Z"/><rect class="cls-16" x="173.54" y="128.53" width="43.9" height="58.39" transform="translate(-20.36 29.26) rotate(-8.14)"/><polygon class="cls-19" points="161.25 141.22 167.07 136.03 208.26 130.59 218.27 189.01 175.18 194.34 161.25 141.22"/><path class="cls-11" d="M163.27,142.25s3.42-4.19,3.8-4.19,39.8-5.57,39.8-5.57l9.37,55.38-5.07,4.06-39.41,2.66Z"/><rect class="cls-19" x="165.16" y="137.82" width="43.9" height="58.39" transform="translate(-21.76 28.17) rotate(-8.14)"/><circle class="cls-5" cx="169.66" cy="173.65" r="11.22"/><path class="cls-17" d="M144.09,102.11s-41.41,53-45.59,66.24-4.58,22.43,5.23,27.17c10.8,5.23,22.06-9.85,24.48-18.94C132.09,162,138.8,136.86,139.42,135,140.29,132.41,144.09,102.11,144.09,102.11Z"/><polygon class="cls-5" points="220.73 418.74 223.97 448.76 228.44 455.66 238.17 451.6 234.12 432.94 230.47 415.08 220.73 418.74"/><polygon class="cls-5" points="169.14 415.73 170.08 445.91 166.61 453.36 156.41 450.69 157.85 431.64 159 413.46 169.14 415.73"/><path class="cls-6" d="M135.11,207.58l9,130.11L157,424.62h13.46l-.56-89.73,7.85-107.68,5,.56s23,111.6,22.44,113.29,15.45,91.88,15.45,91.88h13.46l-1.43-93.57-12.9-131.79Z"/><path class="cls-4" d="M235.47,445.21s-2.43-5.62.76-6.07a5.44,5.44,0,0,1,4.86,1.52l7.59,8.8,3.95,6.38L246.55,453Z"/><path class="cls-13" d="M223.18,442.33s2.48,6.23,5.16,5.16c1.52-.61,4.25-5.62,6.22-4.86s9.57,6.53,12.45,8-5.92-10-5.92-10,7.44,7.89,10,9.25,24.44,7.14,24.89,14l-.37,4.4s-7.22,6.53-24.07.76-26.41-6.83-29.44-8S220.75,442.48,223.18,442.33Z"/><path class="cls-11" d="M255.05,466.76c-8-1.36-21.4-7.28-26.56-7.89a31.06,31.06,0,0,1-7.93-2.23c.19,2.27.67,4,1.56,4.36,3,1.21,12.59,2.27,29.44,8s24.07-.76,24.07-.76l.37-4.4C274,467.37,263.1,468.13,255.05,466.76Z"/><path class="cls-20" d="M239.87,449.69a.85.85,0,0,1-.4-.1.83.83,0,0,1-.33-1.14c.08-.15,2-3.63,4.71-4.14a3.6,3.6,0,0,1,3.08.86.83.83,0,0,1,.12,1.18.84.84,0,0,1-1.18.12,2,2,0,0,0-1.71-.51c-1.58.3-3.1,2.49-3.55,3.3A.83.83,0,0,1,239.87,449.69Z"/><path class="cls-20" d="M242.45,452.12a.84.84,0,0,1-.73-1.25c.08-.14,2-3.62,4.71-4.13a3.65,3.65,0,0,1,3.09.85.85.85,0,0,1-1.07,1.31,2,2,0,0,0-1.71-.51c-1.58.3-3.1,2.48-3.55,3.3A.83.83,0,0,1,242.45,452.12Z"/><path class="cls-20" d="M245.64,453.79a.84.84,0,0,1-.73-1.25c.08-.14,2-3.62,4.7-4.14a3.68,3.68,0,0,1,3.09.87.83.83,0,0,1,.12,1.18.84.84,0,0,1-1.18.12,2,2,0,0,0-1.71-.51c-1.57.3-3.1,2.48-3.55,3.3A.83.83,0,0,1,245.64,453.79Z"/><path class="cls-20" d="M249,455.31a.76.76,0,0,1-.4-.11.83.83,0,0,1-.33-1.14c.08-.15,2-3.62,4.7-4.14a3.67,3.67,0,0,1,3.09.86.84.84,0,1,1-1.06,1.3,2,2,0,0,0-1.71-.51c-1.58.31-3.1,2.49-3.55,3.31A.85.85,0,0,1,249,455.31Z"/><path class="cls-4" d="M158.79,443.81s2.43-5.62-.76-6.07a5.43,5.43,0,0,0-4.85,1.52l-7.59,8.8-4,6.37,6.07-2.88Z"/><path class="cls-13" d="M171.09,440.92s-2.48,6.24-5.16,5.17c-1.52-.61-4.25-5.62-6.23-4.86s-9.56,6.53-12.44,8,5.92-10,5.92-10-7.44,7.89-10,9.25-24.44,7.14-24.9,14l.38,4.4s7.21,6.53,24.06.76,26.42-6.83,29.45-8S173.52,441.08,171.09,440.92Z"/><path class="cls-11" d="M139.21,465.36c8-1.36,21.4-7.28,26.57-7.89a30.86,30.86,0,0,0,7.92-2.23c-.18,2.27-.66,4-1.55,4.36-3,1.21-12.6,2.27-29.45,8s-24.06-.76-24.06-.76l-.38-4.4C120.24,466,131.17,466.73,139.21,465.36Z"/><path class="cls-20" d="M154.39,448.29a.85.85,0,0,1-.74-.43c-.45-.82-2-3-3.55-3.3a2,2,0,0,0-1.7.51.85.85,0,0,1-1.19-.12.84.84,0,0,1,.12-1.18,3.64,3.64,0,0,1,3.09-.86c2.68.51,4.63,4,4.71,4.14a.83.83,0,0,1-.74,1.24Z"/><path class="cls-20" d="M151.81,450.72a.85.85,0,0,1-.74-.43c-.45-.82-2-3-3.55-3.3a2,2,0,0,0-1.7.51.85.85,0,1,1-1.07-1.31,3.64,3.64,0,0,1,3.09-.85c2.68.51,4.63,4,4.71,4.13a.84.84,0,0,1-.74,1.25Z"/><path class="cls-20" d="M148.62,452.39a.82.82,0,0,1-.73-.43c-.46-.82-2-3-3.56-3.3a2,2,0,0,0-1.7.5.84.84,0,0,1-1.19-.11.85.85,0,0,1,.12-1.19,3.68,3.68,0,0,1,3.09-.86c2.68.52,4.63,4,4.71,4.14a.84.84,0,0,1-.74,1.25Z"/><path class="cls-20" d="M145.28,453.91a.84.84,0,0,1-.73-.43c-.46-.82-2-3-3.56-3.31a2,2,0,0,0-1.7.51.84.84,0,1,1-1.07-1.3,3.69,3.69,0,0,1,3.09-.86c2.68.52,4.63,4,4.71,4.14a.84.84,0,0,1-.33,1.14A.77.77,0,0,1,145.28,453.91Z"/><polygon class="cls-21" points="218.5 426.81 236.15 426.85 235.33 436.59 219.96 436.48 218.5 426.81"/><polygon class="cls-21" points="154.93 422.61 172.58 422.65 171.77 432.39 156.39 432.28 154.93 422.61"/><path class="cls-5" d="M175.21,171.82s68.36-6.1,71.58-.43c6.25,11,5.31,16.07-2.08,18.67s-74.28-8.69-74.28-8.69Z"/><path class="cls-22" d="M141.33,151.21c4.86-3.38,7.17-9.32,8.82-15a128.16,128.16,0,0,0,5.06-36.88c-4.24-1.7-9.26-2.56-13.53-.92a174.21,174.21,0,0,0-6,50.74A8.46,8.46,0,0,0,141.33,151.21Z"/><path class="cls-5" d="M194,111.43c1.32-1.59,2.63-9.06,3.45-14.51a145.34,145.34,0,0,0-20.91-1.84V95l-.42,0-.42,0v.06c-2.79.21-9.4.25-15.92,1.71-.23,3.44-.45,10.41,1.45,12.94C163.73,113.13,191.82,114,194,111.43Z"/><polygon class="cls-21" points="177.73 227.21 158.04 226.81 169.88 334.89 177.73 227.21"/><rect class="cls-5" x="168.11" y="75.24" width="16.77" height="32.42" rx="8.38"/><path class="cls-7" d="M176.49,71.88h0a8.38,8.38,0,0,0-8.38,8.38V91a29,29,0,0,0,16.77,0V80.26A8.39,8.39,0,0,0,176.49,71.88Z"/><circle class="cls-23" cx="176.49" cy="19.73" r="19.65" transform="translate(37.74 130.58) rotate(-45)"/><circle class="cls-6" cx="176.49" cy="51.7" r="29.18" transform="translate(15.14 139.94) rotate(-45)"/><circle class="cls-5" cx="176.49" cy="58.43" r="29.18"/><circle class="cls-5" cx="148.42" cy="60.11" r="8.77"/><circle class="cls-5" cx="203.74" cy="60.11" r="8.77"/><path class="cls-23" d="M147.66,53.26s20.9-25.07,45.45-19.11c0,0-14.43-14.48-29.16-7C146.07,36.29,147.66,53.26,147.66,53.26Z"/><path class="cls-24" d="M168.28,58a2.17,2.17,0,1,1-2.17-2.15A2.16,2.16,0,0,1,168.28,58Z"/><path class="cls-24" d="M188.62,58a2.17,2.17,0,1,1-2.17-2.15A2.16,2.16,0,0,1,188.62,58Z"/><path class="cls-25" d="M168.28,48.28a10.88,10.88,0,0,0-9.49,3.25"/><path class="cls-25" d="M184,48.28a10.88,10.88,0,0,1,9.49,3.25"/><path class="cls-25" d="M189.4,69.24a16,16,0,0,1-14.25,3.93"/><path class="cls-22" d="M97.29,231.58c-2.15,4.69-3.73,9.86-3,15,.83,5.82,4.6,10.9,9.19,14.58,2.65,2.12,5.76,3.91,9.14,4,4.38.12,8.43-2.69,10.93-6.28,9.24-13.31,13.46-39.49,3.1-53.42-3.45-4.64-7.62-7.19-12.39-2.89-3.62,3.26-5.83,9.79-8.37,13.93A138.78,138.78,0,0,0,97.29,231.58Z"/><path class="cls-26" d="M98.88,255.21q6.62-13.46,13.21-26.92c3.42-7,7.38-15,8.69-22.7,4-2.89,9.83-2.29,13.79.63s6.21,7.74,7,12.6.27,9.83-.36,14.71c-1.64,12.75-4.16,25.77-11.1,36.59a26.63,26.63,0,0,1-24.08-2C101.91,265.49,99.53,260.07,98.88,255.21Z"/><path class="cls-27" d="M129.23,201.51c-3.86-3-9-4.87-13.78-3.56a21.52,21.52,0,0,0-5.76,2.86A105.12,105.12,0,0,0,95,212.23a4.89,4.89,0,0,0-1.78,2.61,4.66,4.66,0,0,0,.43,2.37,32.11,32.11,0,0,0,4.46,8,9.15,9.15,0,0,0,3.4,3,8.06,8.06,0,0,0,4.79.3c4.43-.85,8.25-3.51,11.94-6.1C127,216.3,141.86,211.49,129.23,201.51Z"/><path class="cls-10" d="M131.37,230.11a7.72,7.72,0,1,1,7.72-7.72A7.72,7.72,0,0,1,131.37,230.11Zm0-13.76a6,6,0,1,0,6,6A6,6,0,0,0,131.37,216.35Z"/><path class="cls-18" d="M99.7,215.6a26.46,26.46,0,0,0-2.41,16l1.33,1.12s1.4-14.55,3.22-14.81Z"/><polygon class="cls-28" points="151.37 98.02 134.83 220.2 128.1 219.36 146.21 97.65 151.37 98.02"/><circle class="cls-5" cx="139.03" cy="134.54" r="10.43"/><path class="cls-5" d="M131.48,138.72,101.8,172.16s-11.11,13.66,1.69,19.09,11.13,1.59,15.8-4.13c.82-1,19.2-42.74,19.2-42.74Z"/><path class="cls-23" d="M193,37.55a73.75,73.75,0,0,0,7.84,12.14,10.31,10.31,0,0,0,1.87,2.08,4.88,4.88,0,0,0,2.31,1c.28-3.07-1.67-5.83-3.15-8.55a33,33,0,0,0-3.47-5.92,17.26,17.26,0,0,0-4.74-3.65c-.87-.49-1.37-1-1.6.07C191.89,35.49,192.67,36.85,193,37.55Z"/><path d="M461.4,78c-2.47,3.4-5.57,6.68-6.11,10.85a14.74,14.74,0,0,0,1.46,7.64c4.25,9.75,13.55,16.7,23.7,19.87s21.07,3,31.58,1.36c7.25-1.11,14.78-3,20-8.19a10,10,0,0,0,3.35-6.34,10.24,10.24,0,0,0-.54-3.5c-1.67-5.53-5.24-10.28-7.44-15.62-2.81-6.83-3.28-14.36-4.54-21.64s-3.59-14.82-9.11-19.74c-5.21-4.64-12.73-6.23-19.59-5-9.47,1.74-18.38,8.54-22.9,17C467.17,62.32,466.63,70.78,461.4,78Z"/><path class="cls-6" d="M465,113.51s-15.68,18.76-18.45,35-8.76,63.09-2.77,71.62,12.92,8.52,14.76,8.52,87.17,6,86.71-7.67-8.76-103.6-8.76-103.6S499.57,98.16,465,113.51Z"/><path class="cls-10" d="M547,135.71c-4.33-8.19-8.29-15.53-10.67-19.91a11.16,11.16,0,0,0-7-5.48c-8.05-2-24.49-5.93-34.24-6.1-13.28-.22-27.5,3.61-33.61,5.11a11,11,0,0,0-6.2,4.06c-10.92,14.47-56.65,76-48.5,81.49,6.33,4.23,19.48,5.17,19.48,5.17s10.86-17.81,10.86-19.11c0-.82,10.73-20,18.75-34.78-3.08,30.36-4.43,59.34-4.43,59.34h83s.14-22.31-2.41-51.41a52.71,52.71,0,0,0,3.39,8.39"/><path class="cls-29" d="M453.92,233.67s7.85,98.14,10.66,108.24,14.56,98.39,14.56,98.39,5.63.87,7.87.31,7.29-80.2,1.68-99.26c-2.42-8.23-.56-99.27-.56-99.27l12.9-.56,1.12,95.9s-1.5,26.72-1.12,33.65c1.12,20.19,9,69.54,9,69.54s7.29,2.24,7.85-1.12,7.3-98.14,7.3-98.14l7.29-124.5-71.79,3.36Z"/><path class="cls-29" d="M546.26,135.72c16.58,23.31,38.08,63,31.42,63.69-15.84,1.59-19.49-1.78-19.49-1.78s-3.45-12.25-7.48-18.19c-1.54-2.27-11.17-14.09-18.3-27.12C539.77,149.2,544.55,139.67,546.26,135.72Z"/><path class="cls-17" d="M451.43,205.58l-12.32,82.95s14,11.2,62.49,11.2,54.1-13.06,54.1-13.06l-21.27-81.09Z"/><path class="cls-21" d="M478.54,436.64s2.28-5.28-.72-5.71a5.11,5.11,0,0,0-4.56,1.43l-7.13,8.27-3.71,6,5.7-2.71Z"/><path class="cls-6" d="M490.09,433.93s-2.33,5.86-4.85,4.85c-1.43-.57-4-5.28-5.85-4.57s-9,6.14-11.69,7.56,5.56-9.41,5.56-9.41-7,7.42-9.42,8.7-23,6.7-23.39,13.12l.35,4.14s6.78,6.13,22.62.71,24.82-6.42,27.67-7.56S492.37,434.07,490.09,433.93Z"/><path class="cls-11" d="M460.14,456.89c7.56-1.28,20.11-6.84,25-7.41a29.22,29.22,0,0,0,7.45-2.1c-.17,2.13-.63,3.76-1.46,4.09-2.85,1.14-11.84,2.14-27.67,7.56s-22.62-.71-22.62-.71l-.35-4.14C442.31,457.46,452.58,458.18,460.14,456.89Z"/><path class="cls-20" d="M474.4,440.85a.77.77,0,0,1-.69-.4c-.43-.77-1.86-2.82-3.34-3.11a1.85,1.85,0,0,0-1.6.48.79.79,0,1,1-1-1.22,3.42,3.42,0,0,1,2.9-.81c2.51.48,4.35,3.75,4.42,3.89a.79.79,0,0,1-.31,1.07A.75.75,0,0,1,474.4,440.85Z"/><path class="cls-20" d="M472,443.13a.8.8,0,0,1-.7-.4c-.42-.77-1.85-2.82-3.34-3.11a1.87,1.87,0,0,0-1.6.48.79.79,0,0,1-1-1.22,3.46,3.46,0,0,1,2.9-.81c2.52.49,4.35,3.75,4.43,3.89a.8.8,0,0,1-.31,1.08A.85.85,0,0,1,472,443.13Z"/><path class="cls-20" d="M469,444.7a.77.77,0,0,1-.69-.4c-.43-.77-1.86-2.82-3.34-3.11a1.85,1.85,0,0,0-1.6.48.79.79,0,1,1-1-1.22,3.42,3.42,0,0,1,2.9-.81c2.51.48,4.34,3.75,4.42,3.89a.79.79,0,0,1-.31,1.07A.75.75,0,0,1,469,444.7Z"/><path class="cls-20" d="M465.84,446.13a.78.78,0,0,1-.69-.41c-.43-.76-1.86-2.82-3.34-3.1a1.85,1.85,0,0,0-1.6.48.79.79,0,0,1-1-1.23,3.44,3.44,0,0,1,2.9-.8c2.52.48,4.35,3.75,4.42,3.89a.78.78,0,0,1-.31,1.07A.75.75,0,0,1,465.84,446.13Z"/><path class="cls-21" d="M524.75,436.61a4.42,4.42,0,0,0-4.17-2.39,9.33,9.33,0,0,0-2.75.52c-1.84.77-1.84,4.92-1.23,5.69s8.77,14.31,8.77,14.31,8-2.62,7.85-3.69-6.77-10.77-6.77-10.77S525.67,438.34,524.75,436.61Z"/><path class="cls-6" d="M509.6,438.65s-2.64,9.6-1.72,14.53c0,0-.15,1.36,4.77,3.52s7.93,11,21.92,9.58S547,462.89,547,462.89s1.68-10.58-11.44-15c-6.4-2.16-9.67-10.29-9.67-10.29s-2.33-1-1.86,1,7.89,11,7.89,11l-2.31.45s-6.22-11.6-8.84-11.91-6.15,3.54-8.3,2.92A4.57,4.57,0,0,1,509.6,438.65Z"/><path class="cls-11" d="M534.57,466.28c14-1.39,12.46-3.39,12.46-3.39a11.76,11.76,0,0,0-.21-3.82c-1.45,1-5.84,3.55-15,3.62-11.53.09-11.8-6.56-16.76-8.16a23.64,23.64,0,0,1-7.41-4.09,14.62,14.62,0,0,0,.19,2.74s-.15,1.36,4.77,3.52S520.58,467.66,534.57,466.28Z"/><path class="cls-11" d="M520.6,442.71a1,1,0,0,1-.73-1.56c.09-.12,2.35-2.77,5-2.88a4,4,0,0,1,3,1.22.95.95,0,1,1-1.34,1.34,2.06,2.06,0,0,0-1.57-.67c-1.47.06-3.1,1.62-3.6,2.21A1,1,0,0,1,520.6,442.71Z"/><path class="cls-11" d="M522.55,445.9a1,1,0,0,1-.73-1.56c.09-.11,2.35-2.77,5-2.88a4,4,0,0,1,3,1.22,1,1,0,0,1,0,1.34.93.93,0,0,1-1.34,0,2.05,2.05,0,0,0-1.57-.66c-1.47.06-3.1,1.61-3.6,2.2A1,1,0,0,1,522.55,445.9Z"/><path class="cls-11" d="M525.39,448.56a.92.92,0,0,1-.61-.22.94.94,0,0,1-.12-1.34c.09-.11,2.35-2.77,5-2.88a4,4,0,0,1,3,1.22,1,1,0,0,1,0,1.34.93.93,0,0,1-1.34,0,2.11,2.11,0,0,0-1.58-.66c-1.48.06-3.09,1.61-3.59,2.2A.9.9,0,0,1,525.39,448.56Z"/><path class="cls-11" d="M527.78,451.49a1,1,0,0,1-.73-1.56c.1-.11,2.36-2.77,5-2.88a4,4,0,0,1,3,1.22.93.93,0,0,1,0,1.34,1,1,0,0,1-1.34,0,2.13,2.13,0,0,0-1.57-.67c-1.47.06-3.09,1.62-3.59,2.21A1,1,0,0,1,527.78,451.49Z"/><path class="cls-4" d="M533,188.61c-4.86-3.38-13.2-39.53-14.85-45.21-3.47-12-4.88-26.62-4.76-39.07,4.24-1.7,9-.37,13.23,1.27,4.43,16.59,12.6,63.79,12,81A8.5,8.5,0,0,1,533,188.61Z"/><polygon class="cls-30" points="517.18 143.03 511.36 137.85 470.17 132.4 460.16 190.82 503.25 196.15 517.18 143.03"/><path class="cls-11" d="M515.16,144.06s-3.42-4.19-3.8-4.19-39.8-5.57-39.8-5.57l-9.38,55.38,5.07,4.06,39.42,2.66Z"/><rect class="cls-30" x="469.37" y="139.63" width="43.9" height="58.39" transform="matrix(-0.99, -0.14, 0.14, -0.99, 953.8, 405.5)"/><polygon class="cls-6" points="525.56 152.31 519.74 147.13 478.55 141.68 468.54 200.11 511.63 205.43 525.56 152.31"/><path class="cls-11" d="M523.54,153.34s-3.42-4.18-3.8-4.18-39.8-5.58-39.8-5.58L470.56,199l5.07,4.05,39.42,2.66Z"/><rect class="cls-6" x="477.75" y="148.91" width="43.9" height="58.39" transform="translate(969.16 425.16) rotate(-171.86)"/><path class="cls-29" d="M494.48,85.23h0a8.39,8.39,0,0,1,8.39,8.39v15.65a8.39,8.39,0,0,1-8.39,8.38h0a8.38,8.38,0,0,1-8.38-8.38V93.62A8.39,8.39,0,0,1,494.48,85.23Z"/><path class="cls-31" d="M494.48,81.87h0a8.39,8.39,0,0,1,8.39,8.38V101a29,29,0,0,1-16.77,0V90.25A8.38,8.38,0,0,1,494.48,81.87Z"/><circle cx="494.48" cy="61.69" r="29.18"/><circle class="cls-29" cx="494.48" cy="68.42" r="29.18" transform="translate(-4.58 79.66) rotate(-9.17)"/><path class="cls-29" d="M513.78,70.1a8.78,8.78,0,1,0,8.78-8.77A8.78,8.78,0,0,0,513.78,70.1Z"/><circle class="cls-29" cx="467.24" cy="70.1" r="8.77"/><path class="cls-4" d="M502.69,68a2.17,2.17,0,1,0,2.17-2.15A2.16,2.16,0,0,0,502.69,68Z"/><path class="cls-4" d="M482.35,68a2.17,2.17,0,1,0,2.17-2.15A2.16,2.16,0,0,0,482.35,68Z"/><path class="cls-32" d="M511.73,62a10.31,10.31,0,0,0-8.91-3.06l-.25-1.24a11.44,11.44,0,0,1,10.08,3.44Z"/><path class="cls-32" d="M477.93,62l-.92-.86a11.44,11.44,0,0,1,10.08-3.44l-.25,1.24A10.19,10.19,0,0,0,477.93,62Z"/><path class="cls-29" d="M494.28,166a10.43,10.43,0,1,0,4.5-14A10.42,10.42,0,0,0,494.28,166Z"/><path class="cls-29" d="M437.86,137.17c-16.57,23.31-36.72,53.94-31.08,57.71,6.33,4.23,19.48,5.17,19.48,5.17s10.86-17.81,10.86-19.11c0-.69,7.46-14.13,14.6-27.16C444.36,150.65,439.58,141.13,437.86,137.17Z"/><path class="cls-4" d="M450,188.61c4.86-3.38,13.2-39.53,14.85-45.21,3.46-12,4.87-26.62,4.76-39.07-4.25-1.7-9-.37-13.23,1.27-4.44,16.59-12.6,63.79-12,81A8.5,8.5,0,0,0,450,188.61Z"/><path class="cls-29" d="M495.76,181.81s-68.36-6.1-71.57-.43c-6.25,11-5.31,16.07,2.07,18.67s74.28-8.69,74.28-8.69Z"/><circle class="cls-29" cx="491.22" cy="185.71" r="11.22"/><path class="cls-29" d="M501.78,156.82s66,18.84,67,25.29c1.88,12.52-.81,16.9-8.63,16.68S493.89,164,493.89,164Z"/><path d="M495.65,46.75a32.83,32.83,0,0,1-7.16,8c-6.52,5.53-14.73,10.15-23.2,9,.25-3.9.57-7.87,2.06-11.48,2.29-5.54,7.2-9.71,12.69-12.12,3.8-1.66,11.35-4.51,15.53-3.28C500.3,38.21,497.48,43.7,495.65,46.75Z"/><path class="cls-14" d="M484.92,78.52a10,10,0,0,0,19.79,0Z"/><path class="cls-11" d="M484.92,78.51a9.88,9.88,0,0,0,1.1,3.23h13.65A2.33,2.33,0,0,0,502,79.41v-.9Z"/><polygon class="cls-5" points="623.14 394.47 623.29 438.79 621.32 443.74 608.5 447.15 608.47 385.19 623.14 394.47"/><polygon class="cls-5" points="660.98 400.35 664.2 438.36 674.27 436.51 676.14 397.84 660.98 400.35"/><path class="cls-4" d="M686.86,200.19,676.25,406.74l-14.8.87L653,220.35l-16.81.82s-7.8,111.73-7.21,113.41-5.06,73.91-5.06,73.91L607,408.12l-5.58-74.8.76-131.82Z"/><polygon class="cls-33" points="627.06 399.02 604.69 399.42 605.66 409.15 625.76 408.71 627.06 399.02"/><polygon class="cls-33" points="679.56 397.92 656.87 398.32 657.83 408.04 678.25 407.61 679.56 397.92"/><path class="cls-33" d="M685.83,220.3l-.19-.06a19.56,19.56,0,0,1-13-19.83h0l14.24-.22Z"/><path class="cls-33" d="M602.19,201.5l17.54-.27.89,16.82A23.2,23.2,0,0,1,614,228.51c-2.67,2.41-9,4.32-11.91,0Z"/><path class="cls-15" d="M722.5,224c2.14,4.7,3.73,9.87,3,15-.83,5.83-4.6,10.91-9.2,14.58-2.64,2.12-5.75,3.91-9.14,4-4.37.12-8.42-2.69-10.92-6.29-9.24-13.3-13.47-39.48-3.1-53.42,3.45-4.64,7.62-7.18,12.39-2.88,3.62,3.26,5.82,9.78,8.37,13.92A142.42,142.42,0,0,1,722.5,224Z"/><path class="cls-8" d="M720.9,247.59l-13.2-26.93c-3.42-7-7.39-15-8.69-22.7-4-2.88-9.83-2.28-13.8.64s-6.2,7.73-7,12.59-.27,9.83.36,14.72c1.64,12.74,4.16,25.76,11.09,36.59,7.92,3.08,16.94,2.63,24.08-2C717.88,257.87,720.26,252.44,720.9,247.59Z"/><path class="cls-12" d="M690.55,193.89c3.87-3.06,9-4.87,13.78-3.56a21.09,21.09,0,0,1,5.76,2.86,104.56,104.56,0,0,1,14.68,11.41,5,5,0,0,1,1.77,2.62,4.67,4.67,0,0,1-.42,2.37,32.75,32.75,0,0,1-4.46,8,9.23,9.23,0,0,1-3.4,3,8.09,8.09,0,0,1-4.8.3c-4.42-.86-8.25-3.51-11.93-6.1C692.78,208.67,677.93,203.86,690.55,193.89Z"/><path class="cls-20" d="M680.69,214.76a7.73,7.73,0,1,1,7.72,7.72A7.74,7.74,0,0,1,680.69,214.76Zm1.69,0a6,6,0,1,0,6-6A6,6,0,0,0,682.38,214.76Z"/><path class="cls-4" d="M720.08,208a26.37,26.37,0,0,1,2.42,16l-1.34,1.12s-1.39-14.54-3.22-14.8Z"/><path class="cls-11" d="M603.72,93.45c6.09-1.59,25.75-4.73,40-5.11v-.06l.42,0,.42,0v.06c5.3.31,24.33-.25,30.57,9.8,6.88,11.07,11.72,102.06,11.72,102.06l-84.67,1.31S601.25,94.09,603.72,93.45Z"/><path class="cls-7" d="M676.25,94.86S716,147.93,720.39,161.1s5.79,17.14-3.94,22c-10.72,5.39-17.52-7.25-20.09-16.3-4.1-14.51-14.29-37.31-14.94-39.14C680.51,125.11,676.25,94.86,676.25,94.86Z"/><path class="cls-6" d="M700.9,124.65l-19.73,25.47L660.82,90.05s21.56-.34,26.35,7.14C691.13,103.36,698.82,113.56,700.9,124.65Z"/><path class="cls-5" d="M622.86,90.5a145.89,145.89,0,0,1,20.88-2.16v-.06l.42,0,.42,0v.06c2.8.16,9.41.1,15.95,1.46a7.34,7.34,0,0,1-1.4,3.26c-8,13.1-27.36,13.26-35.16,0A8.42,8.42,0,0,1,622.86,90.5Z"/><path class="cls-5" d="M643.43,68.51h0a8.37,8.37,0,0,1,8.51,8.25l.24,15.65a8.38,8.38,0,0,1-8.25,8.51h0a8.38,8.38,0,0,1-8.51-8.25L635.17,77A8.39,8.39,0,0,1,643.43,68.51Z"/><path class="cls-7" d="M643.35,63.46h0a8.38,8.38,0,0,1,8.51,8.25L652,82.47a29,29,0,0,1-16.77.26L635.1,72A8.37,8.37,0,0,1,643.35,63.46Z"/><circle class="cls-5" cx="643.14" cy="50.01" r="29.18" transform="translate(24.52 232.89) rotate(-20.92)"/><path class="cls-5" d="M662.46,51.4a8.78,8.78,0,1,0,8.64-8.91A8.78,8.78,0,0,0,662.46,51.4Z"/><path class="cls-5" d="M607.15,52.25a8.78,8.78,0,1,0,8.64-8.91A8.78,8.78,0,0,0,607.15,52.25Z"/><path class="cls-4" d="M651.4,52.79a2.17,2.17,0,1,0,2.13-2.19A2.15,2.15,0,0,0,651.4,52.79Z"/><path class="cls-4" d="M631.06,53.11a2.17,2.17,0,1,0,2.13-2.19A2.16,2.16,0,0,0,631.06,53.11Z"/><path class="cls-34" d="M660.18,46.79l1.21-1.17a11.61,11.61,0,0,0-10.32-3.34l.35,1.64A10,10,0,0,1,660.18,46.79Z"/><path class="cls-34" d="M626.7,47.31a10,10,0,0,1,8.67-3.14l.3-1.65a11.66,11.66,0,0,0-10.22,3.66Z"/><path class="cls-6" d="M579.55,127.25l20.52,24.84,18.47-60.68s-21.56.34-26.12,8C588.66,105.66,581.29,116.1,579.55,127.25Z"/><polygon class="cls-4" points="668.42 89.04 684.96 212.58 691.69 211.74 673.54 89.2 668.42 89.04"/><path class="cls-5" d="M671.36,126.39a10.43,10.43,0,1,0,10.27-10.58A10.43,10.43,0,0,0,671.36,126.39Z"/><path class="cls-5" d="M689.42,131.28l30.19,33s13,17,.67,23.36c-8.91,4.56-16.39-4.65-21.15-10.29-.84-1-16.63-40.27-16.63-40.27Z"/><path class="cls-5" d="M581.2,128.73s-9.54,33.47-10.09,44.13S605,230.4,605,230.4h0a10.12,10.12,0,0,0,14.2-8.49v-.24L594.8,180.3l8.64-43.61Z"/><path class="cls-4" d="M676.09,436.18s-2.52-5.57.65-6.08a5.48,5.48,0,0,1,4.89,1.43l7.74,8.67,4.06,6.3-6.12-2.77Z"/><path class="cls-13" d="M663.75,433.51s2.59,6.19,5.25,5.07c1.51-.63,4.15-5.69,6.14-5s9.67,6.36,12.58,7.82-6.09-9.91-6.09-9.91,7.57,7.76,10.18,9.08,24.56,6.71,25.13,13.53l-.3,4.41s-7.1,6.65-24,1.18-26.53-6.37-29.59-7.53S661.32,433.71,663.75,433.51Z"/><path class="cls-11" d="M696.05,457.39c-8.07-1.23-21.53-6.91-26.7-7.43a30.87,30.87,0,0,1-8-2.09c.23,2.27.74,4,1.63,4.33,3.06,1.16,12.64,2.06,29.59,7.53s24-1.18,24-1.18l.3-4.41C715,457.66,704.12,458.62,696.05,457.39Z"/><path class="cls-20" d="M680.57,440.59a.85.85,0,0,1-.76-1.24c.08-.15,2-3.66,4.64-4.22a3.65,3.65,0,0,1,3.1.81.83.83,0,0,1,.14,1.18.84.84,0,0,1-1.18.14,2,2,0,0,0-1.72-.48c-1.58.33-3,2.54-3.49,3.36A.85.85,0,0,1,680.57,440.59Z"/><path class="cls-20" d="M683.19,443a.85.85,0,0,1-.4-.1.83.83,0,0,1-.35-1.13c.08-.15,2-3.66,4.63-4.23a3.65,3.65,0,0,1,3.1.81.84.84,0,1,1-1,1.32,2,2,0,0,0-1.71-.48c-1.58.33-3.06,2.54-3.5,3.36A.83.83,0,0,1,683.19,443Z"/><path class="cls-20" d="M686.41,444.58a.83.83,0,0,1-.76-1.23c.08-.15,2-3.66,4.64-4.22a3.67,3.67,0,0,1,3.1.8.84.84,0,1,1-1,1.32,2,2,0,0,0-1.71-.48c-1.58.33-3.06,2.54-3.5,3.37A.82.82,0,0,1,686.41,444.58Z"/><path class="cls-20" d="M689.78,446a.75.75,0,0,1-.41-.09.84.84,0,0,1-.35-1.14c.08-.15,2-3.66,4.63-4.22a3.66,3.66,0,0,1,3.11.8.84.84,0,1,1-1,1.32,2,2,0,0,0-1.71-.48c-1.58.34-3.06,2.54-3.49,3.37A.83.83,0,0,1,689.78,446Z"/><path class="cls-4" d="M610.29,441.68s2.43-5.62-.76-6.08a5.48,5.48,0,0,0-4.86,1.52l-7.59,8.81-3.94,6.37,6.07-2.88Z"/><path class="cls-13" d="M622.59,438.79s-2.48,6.24-5.17,5.16c-1.51-.6-4.25-5.61-6.22-4.85s-9.56,6.52-12.45,8,5.92-10,5.92-10-7.43,7.9-10,9.26-24.43,7.14-24.89,14l.38,4.4s7.21,6.53,24.06.76,26.41-6.83,29.45-8.05S625,438.94,622.59,438.79Z"/><path class="cls-11" d="M590.71,463.23c8-1.36,21.4-7.28,26.56-7.89a30.93,30.93,0,0,0,7.93-2.24c-.18,2.28-.67,4-1.55,4.36-3,1.22-12.6,2.28-29.45,8.05s-24.06-.76-24.06-.76l-.38-4.4C571.73,463.84,582.66,464.6,590.71,463.23Z"/><path class="cls-20" d="M605.89,446.16a.84.84,0,0,1-.74-.43c-.45-.82-2-3-3.55-3.3a2,2,0,0,0-1.71.5.83.83,0,0,1-1.18-.11.85.85,0,0,1,.12-1.19,3.67,3.67,0,0,1,3.09-.86c2.67.52,4.62,4,4.7,4.14a.85.85,0,0,1-.32,1.15A.86.86,0,0,1,605.89,446.16Z"/><path class="cls-20" d="M603.31,448.59a.86.86,0,0,1-.74-.43c-.45-.82-2-3-3.55-3.31a2,2,0,0,0-1.71.51.84.84,0,0,1-1.06-1.3,3.67,3.67,0,0,1,3.09-.86c2.67.52,4.62,4,4.7,4.14a.83.83,0,0,1-.33,1.14A.71.71,0,0,1,603.31,448.59Z"/><path class="cls-20" d="M600.12,450.26a.86.86,0,0,1-.74-.43c-.45-.82-2-3-3.55-3.31a2,2,0,0,0-1.71.51.83.83,0,0,1-1.18-.12.84.84,0,0,1,.12-1.18,3.67,3.67,0,0,1,3.09-.86c2.68.52,4.62,4,4.71,4.14a.85.85,0,0,1-.33,1.14A.87.87,0,0,1,600.12,450.26Z"/><path class="cls-20" d="M596.78,451.78a.85.85,0,0,1-.74-.44c-.45-.81-2-3-3.55-3.3a2,2,0,0,0-1.7.51.85.85,0,0,1-1.19-.12.84.84,0,0,1,.12-1.18,3.67,3.67,0,0,1,3.09-.86c2.68.51,4.62,4,4.71,4.14a.85.85,0,0,1-.33,1.14A.87.87,0,0,1,596.78,451.78Z"/><path class="cls-35" d="M643.46,67.47a16.51,16.51,0,0,1-3.59-.4l.27-1.23a15.55,15.55,0,0,0,13.66-3.76l.9.88A16.59,16.59,0,0,1,643.46,67.47Z"/><path class="cls-4" d="M632.19,62.27a9.33,9.33,0,1,1,9.33-9.33A9.34,9.34,0,0,1,632.19,62.27Zm0-17a7.64,7.64,0,1,0,7.64,7.64A7.65,7.65,0,0,0,632.19,45.3Z"/><path class="cls-4" d="M654,62.27a9.33,9.33,0,1,1,9.33-9.33A9.34,9.34,0,0,1,654,62.27Zm0-17a7.64,7.64,0,1,0,7.64,7.64A7.65,7.65,0,0,0,654,45.3Z"/><rect class="cls-4" x="618.33" y="42.18" width="1.68" height="11.88" transform="translate(200.08 506.43) rotate(-52)"/><rect class="cls-4" x="660.91" y="46.98" width="11.88" height="1.68" transform="translate(111.9 420.66) rotate(-38)"/><path class="cls-34" d="M650.67,13.74a80,80,0,0,0-13.29-2.31c-2.3-.17-4.89-.07-6.5,1.58s-.91,5.25,1.4,5.27c-7.11-.44-14.78-.75-20.77,3.11a4.48,4.48,0,0,0-1.71,1.69c-.72,1.49.21,3.35,1.61,4.23a10.33,10.33,0,0,0,4.77,1.14c-4,1.57-8.73,4.19-8.53,8.49a5.45,5.45,0,0,0,7.26,4.5,8.68,8.68,0,0,0-2.49,3.47,3,3,0,0,0,1.44,3.66c1.12.42,2.36-.14,3.41-.72a67.3,67.3,0,0,0,15.81-12A9.61,9.61,0,0,0,630.72,41a2.62,2.62,0,0,0,.22,1.75c.81,1.28,2.79.68,4.08-.13a43.25,43.25,0,0,0,12.5-12c.07,1.76.15,3.52.23,5.28a1.73,1.73,0,0,0,.5,1.39,1.65,1.65,0,0,0,1.31.09A18,18,0,0,0,662.48,24.7C664.35,17.59,656.64,15.19,650.67,13.74Z"/><path class="cls-34" d="M668,26.24c.61,1.13.68,2.48,1.28,3.61.94,1.77,2.94,2.63,4.54,3.83s2.94,3.43,1.86,5.11-3.26,1.48-5.09,1.23c1.17,1.95,2.38,4.07,2.23,6.34s-2.37,4.52-4.53,3.81a17.49,17.49,0,0,1-4-11.48,3.18,3.18,0,0,1-3.66,2.39,6,6,0,0,1-3.82-2.81C650.75,29.31,662.72,16.54,668,26.24Z"/><path class="cls-4" d="M646.27,54.53h-1.68a1.58,1.58,0,0,0-3.15,0h-1.68a3.26,3.26,0,1,1,6.51,0Z"/></g></g></g></svg>