<svg xmlns="http://www.w3.org/2000/svg" viewBox="0 0 768.12 628.5"><defs><style>.cls-1{isolation:isolate;}.cls-2{fill:#f8c34f;}.cls-3{fill:#d6b5d2;opacity:0.65;mix-blend-mode:multiply;}.cls-4{fill:#37354c;}.cls-5{fill:#f2af97;}.cls-6{fill:#d65c5c;}.cls-7{fill:#e08d73;}.cls-8{fill:#6571b7;}.cls-9{fill:#d3af53;}.cls-10{fill:#ead18c;}.cls-11{fill:#fff;}.cls-12{fill:#7983e2;}.cls-13{fill:#524f63;}.cls-14{fill:#823f4a;}.cls-15{fill:#4758a0;}.cls-16{fill:#c45553;}.cls-17{fill:#413339;}.cls-18{fill:#61253f;}.cls-19{fill:#9092ec;}.cls-20{fill:#eff2f7;}.cls-21{fill:#b23f3f;}.cls-22{fill:#d59a4f;}.cls-23{fill:#91616a;}.cls-24{fill:#662f20;}.cls-25{fill:none;stroke:#662f20;stroke-miterlimit:10;stroke-width:0.75px;}.cls-26{fill:#bd8747;}.cls-27{fill:#b37637;}.cls-28{fill:#6b3f25;}.cls-29{fill:#995644;}.cls-30{fill:#5bb59b;}.cls-31{fill:#7c3c2f;}.cls-32{fill:#020202;}.cls-33{fill:#bcbace;}.cls-34{fill:#a85c0f;}.cls-35{fill:#d8775d;}</style></defs><title>students_1</title><g class="cls-1"><g id="Camada_2" data-name="Camada 2"><g id="Camada_1-2" data-name="Camada 1"><path class="cls-2" d="M642,248.18c-33.55-9-51.47-42.6-82.84-54.43-28.66-10.81-61.8-5.91-90.53,2-28.43,7.85-52.72,25.63-82.36,29.77-19.78,2.75-38.32-3-38.32-3-18.87-3.93-40.55-12.39-40.56-12.38h0s-21.87-6.56-38.44-7.36c-19.28-.94-19.66,3.8-68.07,20.52-10.92,3.77-21.61,7-31.88,11.91-23.69,11.32-33.71,28.16-39.86,51-15.43,57.4-92.54,70.9-122.41,121-7.35,12.33-8.41,24.27-4.45,37.36,8.62,28.47,27.13,55.15,58.24,68,35.39,14.6,76,14.07,114.16,15,27,.64,54.94,3.95,77.7,17.92,15.66,9.62,29.27,21.33,42.32,33.55,64.11,46.22,112.55,51.71,144.17,48.83,68.9-6.28,90.92-55.37,162.06-48.83,34.35,3.16,50.05,16.52,95.27,14.74A229.27,229.27,0,0,0,768,579V562.15q0-81.42,0-162.83c0-38.55-2.43-78.3.12-116.56-12.24-6.11-22.41-9.85-32.28-18.74s-20.78-17.93-36.17-16.63c-14.83,1.26-20.64,5.59-41.2,3.81A108,108,0,0,1,642,248.18Z"/><ellipse class="cls-3" cx="211.88" cy="443.19" rx="96.56" ry="19.31"/><ellipse class="cls-3" cx="372.82" cy="443.19" rx="96.56" ry="19.31"/><ellipse class="cls-3" cx="512.83" cy="443.19" rx="96.56" ry="19.31"/><ellipse class="cls-3" cx="628.7" cy="443.19" rx="96.56" ry="19.31"/><path class="cls-4" d="M317.63,95.27s-15,17.94-17.65,33.44-8.38,60.35-2.64,68.51,12.35,8.15,14.11,8.15,83.39,5.71,82.95-7.34S386,98.94,386,98.94,350.72,80.59,317.63,95.27Z"/><path class="cls-5" d="M401.34,115.25s9.51,68.59,10.19,78.78-2,57.05-2,57.05L400,250.4l-19.8-127.21Z"/><path class="cls-6" d="M381,88.81c-5.84-1.43-24.7-4.14-38.35-4.3v-.05l-.41,0-.4,0v.05c-5.06.38-23.27.13-29.09,9.83-6.42,10.7-9.69,97.79-9.69,97.79h81S383.38,89.38,381,88.81Z"/><path class="cls-7" d="M311.67,91.24s-37.24,51.34-41.24,64-5.28,16.47,4.1,21c10.33,5,16.65-7.19,19-15.89,3.71-13.93,13.12-35.89,13.71-37.65C308,120.22,311.67,91.24,311.67,91.24Z"/><polygon class="cls-5" points="366.91 377.01 367.42 419.4 369.38 424.1 381.7 427.18 380.8 367.91 366.91 377.01"/><polygon class="cls-5" points="330.81 383.19 328.29 419.6 318.63 417.98 316.27 381.02 330.81 383.19"/><path class="cls-8" d="M303.08,192.13l13.22,197.4,14.17.61,5.33-179.23,16.09.53S361,318.2,360.48,319.8s5.93,70.62,5.93,70.62l16.13-.59,4.22-71.63-2.68-126.07Z"/><path class="cls-9" d="M379.67,420.59s-2.32-5.38.73-5.81a5.22,5.22,0,0,1,4.65,1.45l7.26,8.42,3.77,6.1L390.27,428Z"/><path class="cls-10" d="M367.91,417.83s2.37,6,4.94,4.93c1.45-.58,4.06-5.37,5.95-4.64s9.15,6.24,11.91,7.69-5.66-9.58-5.66-9.58,7.11,7.55,9.58,8.86,23.38,6.82,23.81,13.36l-.36,4.21s-6.9,6.24-23,.72-25.26-6.53-28.16-7.69S365.59,418,367.91,417.83Z"/><path class="cls-11" d="M398.4,441.2c-7.69-1.3-20.47-7-25.41-7.55a29.61,29.61,0,0,1-7.58-2.13c.18,2.17.64,3.83,1.49,4.17,2.9,1.16,12.05,2.17,28.16,7.69s23-.72,23-.72l.36-4.21C416.55,441.79,406.1,442.51,398.4,441.2Z"/><path class="cls-11" d="M383.88,424.88a.82.82,0,0,1-.39-.11.8.8,0,0,1-.31-1.09c.08-.14,1.94-3.47,4.5-4a3.52,3.52,0,0,1,3,.82.82.82,0,0,1,.11,1.14.81.81,0,0,1-1.13.11,1.9,1.9,0,0,0-1.63-.49c-1.51.29-3,2.38-3.4,3.16A.8.8,0,0,1,383.88,424.88Z"/><path class="cls-11" d="M386.35,427.2a.8.8,0,0,1-.7-1.2c.08-.14,1.94-3.46,4.5-4a3.52,3.52,0,0,1,3,.83.8.8,0,0,1-1,1.24,2,2,0,0,0-1.63-.49c-1.51.29-3,2.38-3.4,3.16A.8.8,0,0,1,386.35,427.2Z"/><path class="cls-11" d="M389.4,428.8a.94.94,0,0,1-.39-.1.81.81,0,0,1-.31-1.1c.08-.14,1.94-3.46,4.5-4a3.53,3.53,0,0,1,3,.83.8.8,0,1,1-1,1.24,1.91,1.91,0,0,0-1.63-.49c-1.51.29-3,2.38-3.4,3.16A.82.82,0,0,1,389.4,428.8Z"/><path class="cls-11" d="M392.6,430.25a.9.9,0,0,1-.39-.1.82.82,0,0,1-.32-1.1c.08-.14,1.95-3.46,4.5-4a3.56,3.56,0,0,1,3,.83.8.8,0,0,1-1,1.24,2,2,0,0,0-1.63-.49c-1.51.29-3,2.38-3.4,3.16A.8.8,0,0,1,392.6,430.25Z"/><path class="cls-6" d="M288.53,120.09l19.25,24.07L326.35,86.4s-20.63,0-25.1,7.22C297.56,99.58,290.36,109.45,288.53,120.09Z"/><polygon class="cls-12" points="363.23 381.41 384.63 381.47 383.85 390.78 364.62 390.66 363.23 381.41"/><polygon class="cls-12" points="313 381.15 334.71 381.19 333.93 390.5 314.39 390.39 313 381.15"/><path class="cls-13" d="M303.27,167.11c4.64-3.23,12.62-37.82,14.2-43.25,3.31-11.44,4.66-25.46,4.55-37.37-4.06-1.63-8.57-.36-12.66,1.21-4.24,15.88-12,61-11.51,77.44A8.15,8.15,0,0,0,303.27,167.11Z"/><path class="cls-5" d="M316.8,121.32a10,10,0,1,1-10-10A10,10,0,0,1,316.8,121.32Z"/><path class="cls-5" d="M299.61,126.26l-28.39,32s-12.22,16.47-.29,22.35c8.59,4.24,15.61-4.68,20.07-10.15.79-1,15.31-38.77,15.31-38.77Z"/><path class="cls-5" d="M362.66,86.27a139.32,139.32,0,0,0-20-1.76v-.05l-.41,0-.4,0v.05c-2.67.2-9,.24-15.23,1.64-.22,3.29,17.6,22.94,17.6,22.94S361.88,91.49,362.66,86.27Z"/><path class="cls-5" d="M342.67,65.54h0a8,8,0,0,0-8,8v15a8,8,0,0,0,8,8h0a8,8,0,0,0,8-8v-15A8,8,0,0,0,342.67,65.54Z"/><path class="cls-7" d="M342.67,60.71h0a8,8,0,0,0-8,8V79a27.84,27.84,0,0,0,16,0V68.73A8,8,0,0,0,342.67,60.71Z"/><circle class="cls-5" cx="342.67" cy="47.85" r="27.92" transform="translate(240.84 378.51) rotate(-80.83)"/><circle class="cls-5" cx="315.81" cy="49.45" r="8.39"/><path class="cls-5" d="M377.12,49.45a8.4,8.4,0,1,1-8.39-8.39A8.4,8.4,0,0,1,377.12,49.45Z"/><path class="cls-4" d="M334.81,50.62a2.08,2.08,0,1,1-2.08-2.06A2.07,2.07,0,0,1,334.81,50.62Z"/><path class="cls-4" d="M354.27,50.62a2.08,2.08,0,1,1-2.08-2.06A2.07,2.07,0,0,1,354.27,50.62Z"/><path class="cls-4" d="M326.32,45l-1.18-1.1A11.19,11.19,0,0,1,335,40.56l-.32,1.58A9.51,9.51,0,0,0,326.32,45Z"/><path class="cls-4" d="M358.35,45A9.53,9.53,0,0,0,350,42.14l-.31-1.58a11.17,11.17,0,0,1,9.82,3.36Z"/><path class="cls-11" d="M309.73,447.76s-1.2,4.42-.55,6.85a9.53,9.53,0,0,0,9.27,7c6.11.19,14.07.58,13.59-16.49Z"/><path class="cls-9" d="M318.72,420.52c.55-1-1.18-8.19,3.86-7.94s5.62,2.65,5.25,6.2-2.7,18-2.7,18l-7.07.64Z"/><path class="cls-10" d="M317.67,415.49s-2.15,12.47-2.38,13-6.66,19.7-5.73,22.72c.67,2.18,4.43,5.3,12.49,5a10.45,10.45,0,0,0,9.85-12c-.81-5.44-1.84-15.73-1.83-15.89s-1-12.94-1-12.94a43.12,43.12,0,0,0-6.38,19.77l-2.17-.12S321.07,414.88,317.67,415.49Z"/><path class="cls-11" d="M327.1,421.77a.81.81,0,0,1-.57-.24c-3.47-3.54-7.13-.53-7.29-.4a.8.8,0,0,1-1.13-.09.81.81,0,0,1,.09-1.14,6.79,6.79,0,0,1,9.48.5.82.82,0,0,1,0,1.14A.83.83,0,0,1,327.1,421.77Z"/><path class="cls-11" d="M326.57,425.89a.81.81,0,0,1-.57-.24,5.25,5.25,0,0,0-7.28-.39.81.81,0,0,1-1.05-1.23,6.79,6.79,0,0,1,9.48.49.81.81,0,0,1,0,1.14A.78.78,0,0,1,326.57,425.89Z"/><path class="cls-11" d="M326,430a.81.81,0,0,1-.57-.24,5.24,5.24,0,0,0-7.28-.4.8.8,0,1,1-1.05-1.22,6.78,6.78,0,0,1,9.48.49.81.81,0,0,1,0,1.14A.83.83,0,0,1,326,430Z"/><path class="cls-11" d="M325.51,434.14a.81.81,0,0,1-.57-.24,5.25,5.25,0,0,0-7.28-.39.82.82,0,0,1-1.14-.09.83.83,0,0,1,.09-1.14,6.78,6.78,0,0,1,9.48.5.79.79,0,0,1,0,1.13A.78.78,0,0,1,325.51,434.14Z"/><path class="cls-6" d="M404.63,120.77l-19.25,24.07L366.81,87.08s20.63,0,25.1,7.22C395.6,100.26,402.8,110.13,404.63,120.77Z"/><path class="cls-13" d="M382.72,167.11c-4.65-3.23-12.63-37.82-14.2-43.25-3.32-11.44-4.66-25.46-4.55-37.37,4.06-1.63,8.57-.36,12.65,1.21,4.24,15.88,12.05,61,11.52,77.44A8.15,8.15,0,0,1,382.72,167.11Z"/><path class="cls-4" d="M355.37,28.09c-2.76,2.45-8.56,2.73-12.05,2.54a54,54,0,0,1-7.9-1,18.28,18.28,0,0,1-6.75-2.5,15.81,15.81,0,0,1-6.12-10C321.74,13,322.22,4,323.43,0c8.53,8.86,18.9,6.85,27.19,11a6.63,6.63,0,0,1,3.9,4.41c1.07-1.61,3.29-.53,4.88.38,3.45,2,7,4.24,9.06,7.94a17.55,17.55,0,0,1,2,7c.45,5.09.05,11.5-2.67,15.57-1.14-4.74-1.75-8.48-3.58-11.9S358.88,28,355.37,28.09Z"/><path class="cls-4" d="M317.23,44.31c-1.47-2.07-3-4.24-3.44-6.81a15.7,15.7,0,0,1,.89-7.54,49.76,49.76,0,0,1,3.77-8.88,9,9,0,0,1,3.44-4,4.54,4.54,0,0,1,6.23,2.82c.86,2.55-1.24,5.51-2.34,7.68C323,33.2,319.1,38.19,317.23,44.31Z"/><path class="cls-14" d="M333.43,59.28a9.58,9.58,0,0,0,18.93,0Z"/><path class="cls-11" d="M333.43,59.28a9.66,9.66,0,0,0,1.05,3.09h13.06a2.23,2.23,0,0,0,2.23-2.24v-.85Z"/><path class="cls-15" d="M304.36,211.35l.18-.06a18.7,18.7,0,0,0,12.16-19.16H303.08Z"/><path class="cls-15" d="M384.08,192.13H367.3l3.13,9.69a22.1,22.1,0,0,0,6.53,9.9c2.59,2.26,5.67,4.87,7.67,6.25Z"/><path class="cls-16" d="M377,254.21l.27,35,.32.94a5.75,5.75,0,0,0,10.33,1.12l.54-.87,1.77-36.75Z"/><path class="cls-16" d="M421.38,253.15l-31.18.5L383.13,294l33-3.35a7.59,7.59,0,0,0,6.95-8Z"/><path class="cls-11" d="M378.56,253.93l.44,32.81s-.14,3.53,3.22,3.6,2.8-4.17,2.8-4.17l1-32.47Z"/><path class="cls-5" d="M411.89,256.47a10,10,0,1,1-10-10A10,10,0,0,1,411.89,256.47Z"/><path class="cls-17" d="M222.45,98.91A10.54,10.54,0,0,0,216.52,95,144.7,144.7,0,0,0,185,91v-.06l-.4,0-.4,0V91c-5.06.38-23.27.13-29.09,9.83-6.42,10.69-9.7,97.79-9.7,97.79h81s-1.54-39.27-4.49-68.31c7.68,14.15,17.94,32.48,17.94,33.26,0,1.25,10.39,18.29,10.39,18.29s12.57-.9,18.63-4.95C276.64,171.64,232.89,112.75,222.45,98.91Z"/><path class="cls-18" d="M153.92,94.57s-6.5,20.17-7.67,29-14.43,73-14.43,73h4.82s12.94-70.49,13.78-73.66,8.35-25.32,8.35-25.32Z"/><polygon class="cls-16" points="178.38 126.2 183.95 121.25 223.35 116.03 232.93 171.92 191.71 177.01 178.38 126.2"/><path class="cls-11" d="M180.31,127.19s3.28-4,3.64-4S222,117.85,222,117.85l9,53-4.85,3.88-37.7,2.55Z"/><rect class="cls-16" x="182.13" y="122.95" width="41.99" height="55.86" transform="translate(-19.31 30.27) rotate(-8.14)"/><polygon class="cls-19" points="170.37 135.09 175.94 130.13 215.34 124.91 224.91 180.8 183.69 185.9 170.37 135.09"/><path class="cls-11" d="M172.3,136.07s3.27-4,3.64-4S214,126.73,214,126.73l9,53-4.85,3.88-37.71,2.55Z"/><rect class="cls-19" x="174.11" y="131.83" width="41.99" height="55.86" transform="translate(-20.65 29.22) rotate(-8.14)"/><circle class="cls-5" cx="178.41" cy="166.11" r="10.73"/><path class="cls-17" d="M154,97.67s-39.61,50.7-43.61,63.36-4.38,21.46,5,26c10.33,5,21.11-9.42,23.43-18.12,3.71-13.93,10.13-38,10.72-39.76C150.32,126.66,154,97.67,154,97.67Z"/><polygon class="cls-5" points="227.26 400.55 230.37 429.27 234.64 435.87 243.95 431.99 240.07 414.13 236.58 397.06 227.26 400.55"/><polygon class="cls-5" points="177.92 397.67 178.81 426.55 175.5 433.67 165.74 431.12 167.11 412.9 168.21 395.5 177.92 397.67"/><path class="cls-6" d="M145.36,198.57,154,323l12.33,83.15h12.88l-.54-85.83,7.51-103,4.83.54s22,106.75,21.46,108.36,14.78,87.89,14.78,87.89h12.87l-1.37-89.5L226.37,198.57Z"/><path class="cls-4" d="M241.37,425.87s-2.32-5.37.73-5.81a5.23,5.23,0,0,1,4.64,1.46l7.26,8.42,3.78,6.1L252,433.28Z"/><path class="cls-13" d="M229.61,423.11s2.37,6,4.93,4.94c1.46-.58,4.07-5.37,6-4.65s9.15,6.25,11.9,7.7-5.66-9.58-5.66-9.58,7.12,7.55,9.59,8.85,23.37,6.83,23.81,13.36l-.36,4.21s-6.9,6.25-23,.73-25.26-6.53-28.17-7.7S227.28,423.26,229.61,423.11Z"/><path class="cls-11" d="M260.1,446.49c-7.7-1.31-20.47-7-25.41-7.55a29.19,29.19,0,0,1-7.58-2.14c.17,2.18.63,3.83,1.48,4.17,2.91,1.17,12,2.18,28.17,7.7s23-.73,23-.73l.36-4.21C278.25,447.07,267.8,447.8,260.1,446.49Z"/><path class="cls-20" d="M245.58,430.16a.78.78,0,0,1-.39-.1.79.79,0,0,1-.31-1.09c.07-.14,1.94-3.47,4.5-4a3.46,3.46,0,0,1,3,.82.8.8,0,0,1,.12,1.13.81.81,0,0,1-1.14.12,1.89,1.89,0,0,0-1.63-.49c-1.52.29-3,2.38-3.4,3.16A.8.8,0,0,1,245.58,430.16Z"/><path class="cls-20" d="M248.05,432.49a.79.79,0,0,1-.39-.11.8.8,0,0,1-.32-1.09c.08-.14,1.95-3.47,4.51-4a3.53,3.53,0,0,1,3,.82.81.81,0,1,1-1,1.25,1.89,1.89,0,0,0-1.63-.49c-1.52.29-3,2.38-3.4,3.16A.79.79,0,0,1,248.05,432.49Z"/><path class="cls-20" d="M251.1,434.08a.78.78,0,0,1-.39-.1.8.8,0,0,1-.32-1.09c.08-.14,2-3.47,4.51-4a3.53,3.53,0,0,1,3,.82.81.81,0,0,1-1,1.25,1.89,1.89,0,0,0-1.63-.49c-1.51.29-3,2.38-3.4,3.16A.8.8,0,0,1,251.1,434.08Z"/><path class="cls-20" d="M254.29,435.53a.81.81,0,0,1-.39-.1.79.79,0,0,1-.31-1.09c.08-.14,1.94-3.47,4.5-4a3.53,3.53,0,0,1,3,.82.81.81,0,0,1-1,1.25,1.92,1.92,0,0,0-1.64-.49c-1.51.29-3,2.38-3.39,3.16A.81.81,0,0,1,254.29,435.53Z"/><path class="cls-4" d="M168,424.53s2.32-5.37-.73-5.81a5.21,5.21,0,0,0-4.64,1.46l-7.26,8.42-3.78,6.1,5.81-2.76Z"/><path class="cls-13" d="M179.78,421.77s-2.37,6-4.94,4.94c-1.45-.58-4.06-5.37-6-4.65s-9.15,6.25-11.91,7.7,5.67-9.58,5.67-9.58-7.12,7.55-9.59,8.85-23.37,6.83-23.81,13.36l.36,4.21s6.9,6.25,23,.73,25.26-6.53,28.17-7.7S182.1,421.92,179.78,421.77Z"/><path class="cls-11" d="M149.29,445.15c7.69-1.31,20.47-7,25.41-7.55a29.19,29.19,0,0,0,7.58-2.14c-.17,2.18-.63,3.83-1.48,4.17-2.91,1.17-12.05,2.18-28.17,7.7s-23-.73-23-.73l-.36-4.21C131.14,445.73,141.59,446.46,149.29,445.15Z"/><path class="cls-20" d="M163.81,428.82a.83.83,0,0,1-.71-.41c-.43-.78-1.89-2.87-3.4-3.16a1.91,1.91,0,0,0-1.63.49.8.8,0,1,1-1-1.25,3.46,3.46,0,0,1,2.95-.82c2.56.49,4.43,3.82,4.5,4a.79.79,0,0,1-.31,1.09A.78.78,0,0,1,163.81,428.82Z"/><path class="cls-20" d="M161.34,431.15a.79.79,0,0,1-.7-.42c-.44-.78-1.89-2.87-3.4-3.16a1.89,1.89,0,0,0-1.63.49.81.81,0,1,1-1-1.25,3.53,3.53,0,0,1,2.95-.82c2.56.49,4.43,3.82,4.5,4a.81.81,0,0,1-.31,1.1A.9.9,0,0,1,161.34,431.15Z"/><path class="cls-20" d="M158.29,432.74a.8.8,0,0,1-.7-.41c-.44-.78-1.89-2.87-3.4-3.16a1.89,1.89,0,0,0-1.63.49.81.81,0,0,1-1.14-.12.8.8,0,0,1,.12-1.13,3.5,3.5,0,0,1,3-.82c2.56.49,4.43,3.82,4.5,4a.79.79,0,0,1-.31,1.09A.78.78,0,0,1,158.29,432.74Z"/><path class="cls-20" d="M155.1,434.2a.8.8,0,0,1-.71-.42c-.43-.78-1.89-2.87-3.4-3.16a1.9,1.9,0,0,0-1.63.49.81.81,0,0,1-1.13-.11.82.82,0,0,1,.11-1.14,3.55,3.55,0,0,1,3-.82c2.56.49,4.42,3.82,4.5,4a.8.8,0,0,1-.31,1.09A.82.82,0,0,1,155.1,434.2Z"/><polygon class="cls-21" points="225.13 408.27 242.01 408.31 241.24 417.63 226.53 417.52 225.13 408.27"/><polygon class="cls-21" points="164.33 404.25 181.21 404.29 180.43 413.61 165.72 413.5 164.33 404.25"/><path class="cls-5" d="M183.73,164.35s65.39-5.83,68.46-.41c6,10.54,5.08,15.37-2,17.87s-71.05-8.31-71.05-8.31Z"/><path class="cls-22" d="M151.32,144.64c4.65-3.23,6.86-8.91,8.43-14.35A122.68,122.68,0,0,0,164.59,95c-4.06-1.63-8.86-2.45-12.94-.88a166.72,166.72,0,0,0-5.75,48.54A8.14,8.14,0,0,0,151.32,144.64Z"/><path class="cls-5" d="M201.65,106.59c1.26-1.52,2.52-8.67,3.3-13.88A138,138,0,0,0,185,91v-.06l-.4,0-.4,0V91c-2.67.2-9,.24-15.23,1.64-.23,3.28-.43,10,1.38,12.37C172.74,108.22,199.61,109,201.65,106.59Z"/><polygon class="cls-21" points="186.13 217.34 167.3 216.96 178.62 320.34 186.13 217.34"/><rect class="cls-5" x="176.93" y="71.98" width="16.04" height="31.01" rx="8.02"/><path class="cls-7" d="M185,68.76h0a8,8,0,0,0-8,8V87.07a27.84,27.84,0,0,0,16,0V76.78A8,8,0,0,0,185,68.76Z"/><circle class="cls-23" cx="184.95" cy="18.88" r="18.8" transform="translate(40.82 136.31) rotate(-45)"/><circle class="cls-6" cx="184.95" cy="49.46" r="27.92" transform="translate(19.2 145.26) rotate(-45)"/><circle class="cls-5" cx="184.95" cy="55.89" r="27.92"/><circle class="cls-5" cx="158.1" cy="57.5" r="8.39"/><circle class="cls-5" cx="211.01" cy="57.5" r="8.39"/><path class="cls-23" d="M157.37,51s20-24,43.47-18.28c0,0-13.8-13.86-27.89-6.67C155.85,34.72,157.37,51,157.37,51Z"/><path class="cls-24" d="M177.09,55.45A2.08,2.08,0,1,1,175,53.39,2.06,2.06,0,0,1,177.09,55.45Z"/><path class="cls-24" d="M196.55,55.45a2.08,2.08,0,1,1-2.07-2.06A2.07,2.07,0,0,1,196.55,55.45Z"/><path class="cls-25" d="M177.09,46.18A10.42,10.42,0,0,0,168,49.29"/><path class="cls-25" d="M192.14,46.18a10.42,10.42,0,0,1,9.08,3.11"/><path class="cls-25" d="M197.3,66.23A15.33,15.33,0,0,1,183.67,70"/><path class="cls-22" d="M109.19,221.52c-2,4.49-3.57,9.44-2.88,14.33.79,5.57,4.4,10.43,8.79,14,2.53,2,5.51,3.74,8.75,3.83,4.18.11,8.05-2.58,10.44-6,8.85-12.72,12.89-37.76,3-51.09-3.3-4.44-7.29-6.88-11.85-2.77-3.46,3.12-5.57,9.37-8,13.32A136.32,136.32,0,0,0,109.19,221.52Z"/><path class="cls-26" d="M110.71,244.13l12.63-25.76c3.28-6.68,7.07-14.37,8.32-21.71,3.81-2.76,9.4-2.19,13.19.61s5.94,7.39,6.69,12,.25,9.41-.35,14.08c-1.57,12.19-4,24.65-10.61,35a25.47,25.47,0,0,1-23-1.89C113.61,254,111.33,248.77,110.71,244.13Z"/><path class="cls-27" d="M139.74,192.76c-3.69-2.92-8.64-4.66-13.18-3.41a20.42,20.42,0,0,0-5.51,2.74A100.89,100.89,0,0,0,107,203a4.67,4.67,0,0,0-1.7,2.5,4.49,4.49,0,0,0,.4,2.27,31,31,0,0,0,4.27,7.66,8.86,8.86,0,0,0,3.25,2.9,7.79,7.79,0,0,0,4.59.29c4.23-.82,7.89-3.36,11.42-5.84C137.62,206.9,151.82,202.3,139.74,192.76Z"/><path class="cls-10" d="M141.79,220.11a7.39,7.39,0,1,1,7.38-7.38A7.4,7.4,0,0,1,141.79,220.11Zm0-13.16a5.78,5.78,0,1,0,5.78,5.78A5.78,5.78,0,0,0,141.79,207Z"/><path class="cls-18" d="M111.5,206.24a25.24,25.24,0,0,0-2.31,15.28l1.27,1.07s1.33-13.91,3.08-14.16Z"/><polygon class="cls-28" points="160.91 93.77 145.09 210.64 138.66 209.83 155.98 93.41 160.91 93.77"/><circle class="cls-5" cx="149.12" cy="128.7" r="9.97"/><path class="cls-5" d="M141.89,132.7l-28.38,32s-10.63,13.07,1.61,18.27,10.64,1.51,15.11-4c.79-1,18.37-40.88,18.37-40.88Z"/><path class="cls-23" d="M200.75,35.92a70.08,70.08,0,0,0,7.49,11.61,9.44,9.44,0,0,0,1.79,2,4.71,4.71,0,0,0,2.21.92c.27-2.94-1.6-5.58-3-8.18a32.29,32.29,0,0,0-3.32-5.66,16.59,16.59,0,0,0-4.53-3.49c-.84-.47-1.32-1-1.54.07C199.67,34,200.43,35.25,200.75,35.92Z"/><path d="M457.48,74.63c-2.36,3.25-5.32,6.38-5.84,10.37a14,14,0,0,0,1.4,7.31c4.06,9.32,13,16,22.66,19s20.17,2.82,30.22,1.29c6.93-1,14.13-2.91,19.12-7.83a9.54,9.54,0,0,0,3.2-6.06,10.1,10.1,0,0,0-.51-3.35c-1.6-5.29-5-9.83-7.12-14.94-2.69-6.54-3.14-13.74-4.34-20.7s-3.44-14.18-8.72-18.88c-5-4.44-12.17-6-18.74-4.77A32.63,32.63,0,0,0,466.9,52.33C463,59.61,462.49,67.71,457.48,74.63Z"/><path class="cls-6" d="M460.91,108.58s-15,17.94-17.65,33.44-8.38,60.35-2.65,68.51,12.36,8.15,14.12,8.15,83.38,5.71,82.94-7.34-8.38-99.09-8.38-99.09S494,93.9,460.91,108.58Z"/><path class="cls-10" d="M539.4,129.82c-4.13-7.84-7.93-14.86-10.21-19a10.63,10.63,0,0,0-6.73-5.24c-7.69-2-23.42-5.67-32.75-5.83-12.7-.22-26.3,3.45-32.15,4.88a10.54,10.54,0,0,0-5.93,3.89c-10.44,13.84-54.19,72.73-46.39,77.95,6.05,4,18.63,4.94,18.63,4.94s10.39-17,10.39-18.28c0-.79,10.26-19.12,17.93-33.27-2.95,29-4.24,56.77-4.24,56.77h79.4s.13-21.34-2.31-49.18a49.39,49.39,0,0,0,3.24,8"/><path class="cls-29" d="M450.33,223.52s7.51,93.88,10.19,103.54,13.93,94.11,13.93,94.11,5.39.84,7.53.3,7-76.71,1.61-95c-2.31-7.87-.54-94.95-.54-94.95l12.34-.54,1.08,91.74S495,348.33,495.39,355c1.08,19.31,8.59,66.52,8.59,66.52s7,2.15,7.51-1.07,7-93.88,7-93.88l7-119.09-68.66,3.22Z"/><path class="cls-29" d="M538.66,129.82c15.85,22.3,36.42,60.3,30.05,60.93-15.15,1.52-18.64-1.7-18.64-1.7s-3.3-11.72-7.16-17.41c-1.47-2.17-10.68-13.47-17.5-25.93C532.45,142.72,537,133.6,538.66,129.82Z"/><path class="cls-17" d="M448,196.65,436.16,276s13.38,10.71,59.78,10.71,51.74-12.49,51.74-12.49l-20.34-77.57Z"/><path class="cls-21" d="M473.88,417.67s2.18-5.05-.69-5.45a4.9,4.9,0,0,0-4.36,1.36L462,421.49l-3.55,5.74,5.46-2.6Z"/><path class="cls-6" d="M484.93,415.08s-2.23,5.6-4.64,4.64c-1.37-.55-3.82-5.05-5.6-4.37s-8.59,5.87-11.18,7.24,5.32-9,5.32-9-6.69,7.1-9,8.32-22,6.42-22.38,12.56l.34,4s6.49,5.87,21.63.69,23.74-6.14,26.47-7.24S487.11,415.22,484.93,415.08Z"/><path class="cls-11" d="M456.27,437.05c7.24-1.23,19.24-6.55,23.88-7.1a27.48,27.48,0,0,0,7.13-2c-.17,2.05-.6,3.61-1.4,3.92-2.73,1.1-11.32,2.05-26.47,7.24s-21.63-.69-21.63-.69l-.34-4C439.22,437.59,449,438.28,456.27,437.05Z"/><path class="cls-20" d="M469.92,421.71a.77.77,0,0,1-.66-.39c-.41-.74-1.78-2.7-3.2-3a1.79,1.79,0,0,0-1.53.45.75.75,0,0,1-1.06-.1.76.76,0,0,1,.1-1.07,3.31,3.31,0,0,1,2.78-.77c2.41.46,4.16,3.59,4.23,3.72a.76.76,0,0,1-.29,1A.86.86,0,0,1,469.92,421.71Z"/><path class="cls-20" d="M467.6,423.89a.75.75,0,0,1-.66-.39c-.41-.74-1.78-2.7-3.2-3a1.77,1.77,0,0,0-1.53.46.76.76,0,0,1-1.06-.11.75.75,0,0,1,.1-1.06,3.28,3.28,0,0,1,2.78-.77c2.41.46,4.16,3.58,4.23,3.72a.75.75,0,0,1-.29,1A.74.74,0,0,1,467.6,423.89Z"/><path class="cls-20" d="M464.73,425.39a.76.76,0,0,1-.66-.39c-.41-.74-1.77-2.7-3.19-3a1.8,1.8,0,0,0-1.53.46.76.76,0,0,1-1.07-.11.75.75,0,0,1,.11-1.06,3.29,3.29,0,0,1,2.77-.77c2.41.46,4.16,3.58,4.24,3.72a.76.76,0,0,1-.3,1A.71.71,0,0,1,464.73,425.39Z"/><path class="cls-20" d="M461.73,426.75a.76.76,0,0,1-.66-.39c-.41-.73-1.78-2.69-3.19-3a1.81,1.81,0,0,0-1.54.46.75.75,0,0,1-1.06-.1.76.76,0,0,1,.11-1.07,3.29,3.29,0,0,1,2.77-.77c2.41.46,4.16,3.59,4.23,3.72a.75.75,0,0,1-.29,1A.81.81,0,0,1,461.73,426.75Z"/><path class="cls-21" d="M518.08,417.64a4.22,4.22,0,0,0-4-2.28,8.78,8.78,0,0,0-2.62.5c-1.77.73-1.77,4.71-1.18,5.44S518.68,435,518.68,435s7.65-2.5,7.5-3.53-6.47-10.3-6.47-10.3S519,419.3,518.08,417.64Z"/><path class="cls-6" d="M503.59,419.6s-2.53,9.18-1.64,13.89c0,0-.15,1.3,4.56,3.38s7.58,10.48,21,9.16,11.92-3.24,11.92-3.24,1.6-10.12-10.95-14.37c-6.12-2.06-9.25-9.84-9.25-9.84s-2.22-1-1.78.94S525,430,525,430l-2.21.42s-6-11.09-8.45-11.39-5.89,3.39-7.95,2.8A4.4,4.4,0,0,1,503.59,419.6Z"/><path class="cls-11" d="M527.48,446c13.39-1.33,11.92-3.24,11.92-3.24a11.48,11.48,0,0,0-.21-3.66c-1.38,1-5.58,3.4-14.31,3.46-11,.09-11.28-6.28-16-7.8a22.45,22.45,0,0,1-7.08-3.91,13.27,13.27,0,0,0,.18,2.61s-.15,1.3,4.56,3.38S514.09,447.35,527.48,446Z"/><path class="cls-11" d="M514.11,423.48a.88.88,0,0,1-.59-.22.9.9,0,0,1-.11-1.27c.09-.11,2.25-2.65,4.75-2.76A3.82,3.82,0,0,1,521,420.4a.92.92,0,0,1,0,1.29.91.91,0,0,1-1.28,0,1.92,1.92,0,0,0-1.51-.64c-1.41.05-3,1.54-3.44,2.11A.9.9,0,0,1,514.11,423.48Z"/><path class="cls-11" d="M516,426.53a.9.9,0,0,1-.69-1.49c.09-.11,2.25-2.65,4.74-2.75a3.82,3.82,0,0,1,2.88,1.17.91.91,0,0,1,0,1.28.92.92,0,0,1-1.29,0,2,2,0,0,0-1.5-.64c-1.41.06-3,1.54-3.44,2.11A.92.92,0,0,1,516,426.53Z"/><path class="cls-11" d="M518.69,429.08a.92.92,0,0,1-.58-.21.9.9,0,0,1-.11-1.28c.09-.11,2.25-2.65,4.74-2.76a3.83,3.83,0,0,1,2.87,1.17.91.91,0,0,1,0,1.28.89.89,0,0,1-1.28,0,2.07,2.07,0,0,0-1.51-.64c-1.42.07-3,1.55-3.43,2.11A.9.9,0,0,1,518.69,429.08Z"/><path class="cls-11" d="M521,431.88a.86.86,0,0,1-.58-.22.89.89,0,0,1-.11-1.27c.09-.11,2.25-2.65,4.74-2.76a3.83,3.83,0,0,1,2.87,1.17.91.91,0,0,1-1.28,1.28,2.08,2.08,0,0,0-1.51-.64c-1.4.06-3,1.55-3.43,2.12A.94.94,0,0,1,521,431.88Z"/><path class="cls-4" d="M526,180.42c-4.65-3.23-12.63-37.81-14.2-43.25-3.32-11.44-4.67-25.46-4.56-37.37,4.06-1.63,8.58-.36,12.66,1.21,4.24,15.88,12.05,61,11.51,77.44A8.08,8.08,0,0,1,526,180.42Z"/><polygon class="cls-30" points="510.84 136.82 505.27 131.86 465.87 126.65 456.29 182.54 497.51 187.63 510.84 136.82"/><path class="cls-11" d="M508.91,137.8s-3.27-4-3.64-4-38.07-5.34-38.07-5.34l-9,53,4.85,3.88,37.71,2.55Z"/><rect class="cls-30" x="465.11" y="133.56" width="41.99" height="55.86" transform="translate(944.45 390.17) rotate(-171.86)"/><polygon class="cls-6" points="518.86 145.7 513.29 140.74 473.89 135.53 464.31 191.42 505.53 196.51 518.86 145.7"/><path class="cls-11" d="M516.93,146.68s-3.28-4-3.64-4-38.07-5.33-38.07-5.33l-9,53,4.85,3.88,37.7,2.54Z"/><rect class="cls-6" x="473.13" y="142.45" width="41.99" height="55.86" transform="translate(959.15 408.97) rotate(-171.86)"/><path class="cls-29" d="M489.13,81.53h0a8,8,0,0,1,8,8v15a8,8,0,0,1-8,8h0a8,8,0,0,1-8-8v-15A8,8,0,0,1,489.13,81.53Z"/><path class="cls-31" d="M489.13,78.31h0a8,8,0,0,1,8,8V96.62a27.62,27.62,0,0,1-16,0V86.33A8,8,0,0,1,489.13,78.31Z"/><circle cx="489.13" cy="59.01" r="27.92"/><circle class="cls-29" cx="489.13" cy="65.45" r="27.92" transform="translate(-4.18 78.76) rotate(-9.17)"/><path class="cls-29" d="M507.59,67.06a8.4,8.4,0,1,0,8.39-8.4A8.39,8.39,0,0,0,507.59,67.06Z"/><circle class="cls-29" cx="463.07" cy="67.06" r="8.39"/><path class="cls-4" d="M497,65A2.08,2.08,0,1,0,499.06,63,2.07,2.07,0,0,0,497,65Z"/><path class="cls-4" d="M477.53,65A2.08,2.08,0,1,0,479.6,63,2.07,2.07,0,0,0,477.53,65Z"/><path class="cls-32" d="M505.62,59.26a9.84,9.84,0,0,0-8.52-2.93l-.23-1.18a10.89,10.89,0,0,1,9.63,3.29Z"/><path class="cls-32" d="M473.3,59.26l-.88-.82a10.9,10.9,0,0,1,9.64-3.29l-.24,1.18A9.72,9.72,0,0,0,473.3,59.26Z"/><path class="cls-29" d="M488.93,158.76a10,10,0,1,0,4.31-13.43A10,10,0,0,0,488.93,158.76Z"/><path class="cls-29" d="M435,131.21c-15.85,22.3-35.13,51.6-29.73,55.21,6.05,4,18.63,4.94,18.63,4.94s10.39-17,10.39-18.28c0-.66,7.14-13.52,14-26C441.18,144.11,436.61,135,435,131.21Z"/><path class="cls-4" d="M446.54,180.42c4.65-3.23,12.63-37.81,14.2-43.25,3.32-11.44,4.67-25.46,4.56-37.37-4.06-1.63-8.58-.36-12.66,1.21-4.24,15.88-12.05,61-11.51,77.44A8.08,8.08,0,0,0,446.54,180.42Z"/><path class="cls-29" d="M490.35,173.91s-65.39-5.83-68.46-.41c-6,10.54-5.08,15.37,2,17.86s71.05-8.31,71.05-8.31Z"/><circle class="cls-29" cx="486.01" cy="177.65" r="10.73"/><path class="cls-29" d="M496.11,150s63.13,18,64,24.19c1.8,12-.77,16.17-8.26,16s-63.34-33.26-63.34-33.26Z"/><path d="M490.25,44.72a31.38,31.38,0,0,1-6.86,7.6c-6.23,5.3-14.08,9.71-22.18,8.62.24-3.73.54-7.52,2-11,2.19-5.3,6.9-9.28,12.15-11.59,3.62-1.59,10.85-4.32,14.85-3.14C494.69,36.55,492,41.8,490.25,44.72Z"/><path class="cls-14" d="M480,75.1a9.58,9.58,0,0,0,18.93,0Z"/><path class="cls-11" d="M480,75.1a9.74,9.74,0,0,0,1,3.09h13.06A2.23,2.23,0,0,0,496.32,76V75.1Z"/><polygon class="cls-5" points="612.2 377.34 612.34 419.73 610.46 424.46 598.19 427.73 598.17 368.46 612.2 377.34"/><polygon class="cls-5" points="648.39 382.96 651.47 419.32 661.11 417.55 662.89 380.56 648.39 382.96"/><path class="cls-4" d="M673.15,191.49,663,389.07l-14.16.84-8.11-179.13-16.09.78s-7.46,106.88-6.9,108.48-4.83,70.71-4.83,70.71l-16.14-.35-5.33-71.56.72-126.09Z"/><polygon class="cls-33" points="615.95 381.69 594.55 382.07 595.47 391.38 614.7 390.96 615.95 381.69"/><polygon class="cls-33" points="666.16 380.64 644.46 381.02 645.38 390.32 664.92 389.91 666.16 380.64"/><path class="cls-33" d="M672.16,210.73l-.18-.06a18.69,18.69,0,0,1-12.45-19h0l13.62-.22Z"/><path class="cls-33" d="M592.16,192.75l16.78-.26.85,16.09a22.3,22.3,0,0,1-6.38,10c-2.55,2.3-8.62,4.13-11.4,0Z"/><path class="cls-15" d="M707.24,214.22c2,4.5,3.57,9.44,2.88,14.33-.79,5.58-4.4,10.43-8.79,13.95-2.53,2-5.51,3.74-8.75,3.83-4.19.12-8.06-2.57-10.45-6-8.84-12.73-12.88-37.77-3-51.1,3.3-4.44,7.29-6.87,11.85-2.76,3.46,3.12,5.57,9.36,8,13.32A134.54,134.54,0,0,1,707.24,214.22Z"/><path class="cls-8" d="M705.71,236.83Q699.4,224,693.09,211.08c-3.28-6.69-7.07-14.38-8.32-21.71-3.82-2.77-9.4-2.19-13.19.6s-5.94,7.4-6.69,12.05-.25,9.4.35,14.07c1.57,12.2,4,24.65,10.61,35a25.48,25.48,0,0,0,23-1.89C702.82,246.67,705.1,241.48,705.71,236.83Z"/><path class="cls-12" d="M676.68,185.47c3.7-2.92,8.64-4.66,13.18-3.41a20.28,20.28,0,0,1,5.51,2.74,99.49,99.49,0,0,1,14,10.92,4.72,4.72,0,0,1,1.7,2.5,4.44,4.44,0,0,1-.41,2.26,30.74,30.74,0,0,1-4.26,7.66,8.89,8.89,0,0,1-3.25,2.91,7.72,7.72,0,0,1-4.59.28c-4.23-.82-7.89-3.35-11.42-5.83C678.81,199.61,664.61,195,676.68,185.47Z"/><path class="cls-20" d="M667.25,205.43a7.39,7.39,0,1,1,7.39,7.39A7.4,7.4,0,0,1,667.25,205.43Zm1.61,0a5.78,5.78,0,1,0,5.78-5.77A5.78,5.78,0,0,0,668.86,205.43Z"/><path class="cls-4" d="M704.93,198.94a25.26,25.26,0,0,1,2.31,15.28L706,215.3s-1.34-13.92-3.09-14.17Z"/><path class="cls-11" d="M593.62,89.39c5.83-1.52,24.63-4.52,38.28-4.89v0l.4,0,.4,0v0c5.07.3,23.27-.23,29.24,9.38,6.58,10.59,11.21,97.62,11.21,97.62l-81,1.26S591.26,90,593.62,89.39Z"/><path class="cls-7" d="M663,90.74s38,50.77,42.23,63.37,5.53,16.39-3.78,21.07c-10.25,5.16-16.76-6.93-19.21-15.59-3.92-13.87-13.67-35.68-14.29-37.44C667.08,119.67,663,90.74,663,90.74Z"/><path class="cls-6" d="M686.58,119.24,667.7,143.6,648.24,86.14s20.63-.32,25.21,6.83C677.23,98.87,684.59,108.63,686.58,119.24Z"/><path class="cls-5" d="M611.93,86.57a138.67,138.67,0,0,1,20-2.07v0l.4,0,.4,0v0c2.67.16,9,.1,15.25,1.4A7.06,7.06,0,0,1,646.62,89c-7.68,12.53-26.17,12.69-33.63,0A7.76,7.76,0,0,1,611.93,86.57Z"/><path class="cls-5" d="M631.6,65.53h0a8,8,0,0,1,8.15,7.9l.23,15a8,8,0,0,1-7.89,8.15h0a8,8,0,0,1-8.15-7.9l-.23-15A8,8,0,0,1,631.6,65.53Z"/><path class="cls-7" d="M631.53,60.7h0a8,8,0,0,1,8.14,7.9l.16,10.29a27.73,27.73,0,0,1-16,.25l-.16-10.29A8,8,0,0,1,631.53,60.7Z"/><circle class="cls-5" cx="631.33" cy="47.84" r="27.92" transform="translate(24.52 228.53) rotate(-20.92)"/><path class="cls-5" d="M649.81,49.16a8.4,8.4,0,1,0,8.27-8.52A8.41,8.41,0,0,0,649.81,49.16Z"/><path class="cls-5" d="M596.9,50a8.4,8.4,0,1,0,8.27-8.52A8.41,8.41,0,0,0,596.9,50Z"/><path class="cls-4" d="M639.23,50.5a2.08,2.08,0,1,0,2-2.09A2.06,2.06,0,0,0,639.23,50.5Z"/><path class="cls-4" d="M619.77,50.8a2.08,2.08,0,1,0,2.05-2.09A2.07,2.07,0,0,0,619.77,50.8Z"/><path class="cls-34" d="M647.63,44.76l1.16-1.12a11.17,11.17,0,0,0-9.88-3.2l.34,1.57A9.52,9.52,0,0,1,647.63,44.76Z"/><path class="cls-34" d="M615.6,45.26a9.54,9.54,0,0,1,8.29-3l.29-1.58a11.18,11.18,0,0,0-9.77,3.5Z"/><path class="cls-6" d="M570.51,121.72l19.62,23.76,17.67-58s-20.63.32-25,7.61C579.22,101.07,572.17,111.06,570.51,121.72Z"/><polygon class="cls-4" points="655.51 85.17 671.33 203.34 677.77 202.54 660.41 85.32 655.51 85.17"/><path class="cls-5" d="M658.33,120.9a10,10,0,1,0,9.81-10.12A10,10,0,0,0,658.33,120.9Z"/><path class="cls-5" d="M675.6,125.58l28.88,31.54s12.48,16.27.64,22.34c-8.52,4.36-15.68-4.44-20.23-9.85-.8-1-15.91-38.51-15.91-38.51Z"/><path class="cls-5" d="M572.08,123.14s-9.13,32-9.65,42.21,32.38,55,32.38,55h0a9.67,9.67,0,0,0,13.58-8.12l0-.23-23.32-39.57,8.27-41.72Z"/><path class="cls-4" d="M662.85,417.24s-2.42-5.33.62-5.82a5.23,5.23,0,0,1,4.68,1.37l7.4,8.29,3.88,6-5.85-2.66Z"/><path class="cls-13" d="M651,414.68s2.48,5.92,5,4.85c1.44-.6,4-5.44,5.87-4.75s9.25,6.09,12,7.49-5.83-9.48-5.83-9.48,7.24,7.42,9.73,8.68,23.5,6.42,24,12.94l-.29,4.22s-6.79,6.36-23,1.13-25.38-6.09-28.3-7.2S648.72,414.87,651,414.68Z"/><path class="cls-11" d="M681.94,437.52c-7.72-1.17-20.59-6.61-25.54-7.1a29.49,29.49,0,0,1-7.62-2c.21,2.18.7,3.82,1.56,4.15,2.92,1.11,12.09,2,28.3,7.2s23-1.13,23-1.13l.29-4.22C700.1,437.79,689.66,438.7,681.94,437.52Z"/><path class="cls-20" d="M667.14,421.45a.86.86,0,0,1-.39-.09.8.8,0,0,1-.34-1.09c.08-.14,1.88-3.5,4.43-4a3.51,3.51,0,0,1,3,.77.81.81,0,1,1-1,1.27,1.92,1.92,0,0,0-1.65-.46c-1.51.32-2.92,2.43-3.34,3.21A.78.78,0,0,1,667.14,421.45Z"/><path class="cls-20" d="M669.64,423.73a.92.92,0,0,1-.39-.09.81.81,0,0,1-.33-1.09c.08-.14,1.88-3.5,4.43-4a3.51,3.51,0,0,1,3,.77.8.8,0,1,1-1,1.26,1.92,1.92,0,0,0-1.64-.45c-1.51.31-2.92,2.43-3.34,3.21A.79.79,0,0,1,669.64,423.73Z"/><path class="cls-20" d="M672.72,425.27a.68.68,0,0,1-.39-.09.8.8,0,0,1-.33-1.09c.07-.14,1.88-3.5,4.43-4a3.52,3.52,0,0,1,3,.77.8.8,0,1,1-1,1.26,1.89,1.89,0,0,0-1.64-.46c-1.5.31-2.92,2.43-3.34,3.22A.79.79,0,0,1,672.72,425.27Z"/><path class="cls-20" d="M675.94,426.67a.89.89,0,0,1-.39-.09.81.81,0,0,1-.33-1.09c.07-.14,1.88-3.5,4.43-4a3.53,3.53,0,0,1,3,.77.8.8,0,1,1-1,1.26A1.92,1.92,0,0,0,680,423c-1.51.31-2.93,2.43-3.34,3.21A.8.8,0,0,1,675.94,426.67Z"/><path class="cls-4" d="M599.91,422.49s2.32-5.37-.73-5.81a5.24,5.24,0,0,0-4.65,1.46l-7.26,8.42-3.77,6.1,5.81-2.76Z"/><path class="cls-13" d="M611.67,419.73s-2.37,6-4.94,4.94c-1.45-.58-4.06-5.37-6-4.65s-9.15,6.25-11.91,7.7,5.66-9.58,5.66-9.58-7.11,7.55-9.58,8.85-23.38,6.83-23.81,13.36l.36,4.21s6.9,6.25,23,.73,25.26-6.53,28.16-7.7S614,419.88,611.67,419.73Z"/><path class="cls-11" d="M581.18,443.11c7.69-1.31,20.47-7,25.41-7.55a29.19,29.19,0,0,0,7.58-2.14c-.18,2.18-.64,3.83-1.49,4.17-2.9,1.17-12,2.18-28.16,7.7s-23-.73-23-.73l-.36-4.21C563,443.69,573.48,444.42,581.18,443.11Z"/><path class="cls-20" d="M595.7,426.78a.81.81,0,0,1-.71-.41c-.43-.78-1.89-2.87-3.4-3.16a1.9,1.9,0,0,0-1.63.49.81.81,0,0,1-1-1.25,3.48,3.48,0,0,1,3-.82c2.56.49,4.42,3.82,4.5,4a.8.8,0,0,1-.7,1.19Z"/><path class="cls-20" d="M593.23,429.11a.82.82,0,0,1-.71-.42c-.43-.78-1.89-2.87-3.4-3.16a1.91,1.91,0,0,0-1.63.49.81.81,0,0,1-1.13-.11.82.82,0,0,1,.11-1.14,3.55,3.55,0,0,1,3-.82c2.56.49,4.42,3.82,4.5,4a.81.81,0,0,1-.31,1.1A.94.94,0,0,1,593.23,429.11Z"/><path class="cls-20" d="M590.18,430.7a.83.83,0,0,1-.71-.41c-.43-.78-1.89-2.87-3.4-3.16a1.91,1.91,0,0,0-1.63.49.8.8,0,0,1-1-1.25,3.5,3.5,0,0,1,3-.82c2.56.49,4.42,3.82,4.5,4a.79.79,0,0,1-.31,1.09A.81.81,0,0,1,590.18,430.7Z"/><path class="cls-20" d="M587,432.16a.8.8,0,0,1-.7-.42c-.43-.78-1.89-2.87-3.4-3.16a1.89,1.89,0,0,0-1.63.49.81.81,0,0,1-1.13-.11.82.82,0,0,1,.11-1.14,3.55,3.55,0,0,1,3-.82c2.56.49,4.42,3.82,4.5,4a.8.8,0,0,1-.32,1.09A.77.77,0,0,1,587,432.16Z"/><path class="cls-35" d="M631.63,64.54a16.29,16.29,0,0,1-3.43-.38l.26-1.18a14.88,14.88,0,0,0,13.07-3.6l.86.85A16,16,0,0,1,631.63,64.54Z"/><path class="cls-4" d="M620.86,59.56a8.92,8.92,0,1,1,8.92-8.92A8.93,8.93,0,0,1,620.86,59.56Zm0-16.23a7.31,7.31,0,1,0,7.31,7.31A7.32,7.32,0,0,0,620.86,43.33Z"/><path class="cls-4" d="M641.7,59.56a8.92,8.92,0,1,1,8.92-8.92A8.93,8.93,0,0,1,641.7,59.56Zm0-16.23A7.31,7.31,0,1,0,649,50.64,7.32,7.32,0,0,0,641.7,43.33Z"/><rect class="cls-4" x="607.6" y="40.35" width="1.61" height="11.36" transform="translate(197.58 497.14) rotate(-52)"/><rect class="cls-4" x="648.33" y="44.94" width="11.36" height="1.61" transform="translate(110.46 412.32) rotate(-38)"/><path class="cls-34" d="M638.53,13.14a77.18,77.18,0,0,0-12.71-2.21c-2.2-.16-4.68-.06-6.22,1.52s-.87,5,1.34,5c-6.8-.42-14.13-.71-19.87,3a4.23,4.23,0,0,0-1.63,1.62c-.69,1.42.2,3.2,1.54,4a9.87,9.87,0,0,0,4.56,1.1c-3.83,1.5-8.35,4-8.15,8.11a5.21,5.21,0,0,0,6.94,4.31A8.29,8.29,0,0,0,601.94,43a2.87,2.87,0,0,0,1.38,3.5,4.06,4.06,0,0,0,3.26-.69,64.17,64.17,0,0,0,15.13-11.48,9.21,9.21,0,0,0-2.26,4.89,2.5,2.5,0,0,0,.21,1.67c.77,1.23,2.67.66,3.9-.12a41.34,41.34,0,0,0,12-11.46c.07,1.69.15,3.37.22,5.05a1.63,1.63,0,0,0,.48,1.33,1.61,1.61,0,0,0,1.26.09,17.21,17.21,0,0,0,12.35-12.11C651.62,16.82,644.25,14.53,638.53,13.14Z"/><path class="cls-34" d="M655.11,25.11c.58,1.07.65,2.37,1.22,3.45.9,1.69,2.82,2.51,4.35,3.65s2.81,3.29,1.77,4.9-3.11,1.42-4.86,1.17c1.12,1.87,2.28,3.89,2.13,6.07s-2.27,4.32-4.33,3.64a16.73,16.73,0,0,1-3.86-11,3,3,0,0,1-3.5,2.28,5.75,5.75,0,0,1-3.66-2.68C638.61,28,650.06,15.82,655.11,25.11Z"/><path class="cls-4" d="M634.32,52.16h-1.61a1.5,1.5,0,1,0-3,0H628.1a3.11,3.11,0,0,1,6.22,0Z"/></g></g></g></svg>